<?xml version="1.0" encoding="utf-8"?>
<!-- Generator: Adobe Illustrator 26.0.0, SVG Export Plug-In . SVG Version: 6.00 Build 0)  -->
<svg version="1.1" xmlns="http://www.w3.org/2000/svg" xmlns:xlink="http://www.w3.org/1999/xlink" x="0px" y="0px"
	 viewBox="0 0 197 176" style="enable-background:new 0 0 197 176;" xml:space="preserve">
<style type="text/css">
	.st0{fill:#F0EFFF;}
	.st1{fill:#9988EF;}
	.st2{fill:#5D38BE;}
	.st3{fill:#D3D2F4;}
	.st4{fill:#CFCEEF;}
	.st5{fill:#FFD100;}
	.st6{fill:#5D31C2;}
	.st7{fill:#38008F;}
	.st8{fill:#B5C2D7;}
	.st9{fill:#F2BAAE;}
	.st10{fill:#B6C3D9;}
	.st11{fill:#1F1B34;}
	.st12{fill:#06060A;}
	.st13{fill-rule:evenodd;clip-rule:evenodd;fill:#1F1B34;}
	.st14{fill:#5000B4;}
	.st15{fill-rule:evenodd;clip-rule:evenodd;fill:#38008F;}
	.st16{fill:#FDCE03;}
	.st17{opacity:0.42;fill:#FDA804;}
	.st18{fill:#203156;}
	.st19{opacity:0.29;fill:#1A0A3E;enable-background:new    ;}
	.st20{fill:#5C00CF;}
	.st21{fill:#5A1B00;}
	.st22{fill:#FFFFFF;}
	.st23{fill:#340D68;}
	.st24{clip-path:url(#SVGID_00000021808992775133323990000007630691868695920262_);}
	.st25{opacity:0.29;fill:#1C0641;enable-background:new    ;}
	.st26{fill:#23094E;}
	.st27{fill:#130335;}
	.st28{fill:#FDCC01;}
	.st29{fill:#5D3EBC;}
</style>
<g id="Layer_7">
	<circle class="st0" cx="106.24" cy="89.26" r="78.47"/>
	<path class="st1" d="M106.24,10.8c43.34,0,78.47,35.13,78.47,78.47s-35.13,78.47-78.47,78.47V10.8z"/>
</g>
<g id="Layer_8">
</g>
<g id="Layer_1">
	<g>
		<g>
			<polygon class="st2" points="150.17,66.07 151.55,65.41 152.93,64.75 152.92,66.1 152.9,67.45 151.54,66.76 			"/>
			<polygon class="st2" points="155.66,66.13 154.28,66.79 152.9,67.45 152.91,66.1 152.93,64.75 154.29,65.44 			"/>
		</g>
		<g>
			<polygon class="st2" points="152.94,63.36 153.6,64.74 154.26,66.12 152.91,66.1 151.57,66.09 152.25,64.72 			"/>
			<polygon class="st2" points="152.89,68.85 152.23,67.46 151.57,66.08 152.91,66.1 154.26,66.11 153.57,67.48 			"/>
		</g>
	</g>
	<g>
		<g>
			<polygon class="st2" points="161.22,44.91 161.97,44.55 162.71,44.19 162.71,44.92 162.7,45.65 161.96,45.28 			"/>
			<polygon class="st2" points="164.19,44.94 163.44,45.3 162.7,45.65 162.7,44.92 162.71,44.19 163.45,44.57 			"/>
		</g>
		<g>
			<polygon class="st2" points="162.72,43.44 163.08,44.19 163.44,44.93 162.71,44.92 161.98,44.92 162.35,44.18 			"/>
			<polygon class="st2" points="162.69,46.41 162.33,45.66 161.98,44.91 162.71,44.92 163.44,44.93 163.06,45.67 			"/>
		</g>
	</g>
	<g>
		<g>
			<polygon class="st2" points="133.94,26.21 134.68,25.86 135.43,25.5 135.42,26.23 135.41,26.96 134.68,26.59 			"/>
			<polygon class="st2" points="136.9,26.24 136.16,26.6 135.41,26.96 135.42,26.23 135.43,25.5 136.17,25.87 			"/>
		</g>
		<g>
			<polygon class="st2" points="135.44,24.74 135.79,25.49 136.15,26.24 135.42,26.23 134.69,26.22 135.06,25.48 			"/>
			<polygon class="st2" points="135.41,27.71 135.05,26.97 134.69,26.22 135.42,26.23 136.15,26.23 135.78,26.97 			"/>
		</g>
	</g>
	<g>
		<g>
			<polygon class="st2" points="114.05,31.51 115.43,30.85 116.81,30.19 116.79,31.54 116.78,32.89 115.41,32.2 			"/>
			<polygon class="st2" points="119.53,31.57 118.15,32.23 116.77,32.89 116.79,31.54 116.8,30.19 118.17,30.88 			"/>
		</g>
		<g>
			<polygon class="st2" points="116.82,28.8 117.48,30.18 118.14,31.56 116.79,31.55 115.44,31.53 116.13,30.17 			"/>
			<polygon class="st2" points="116.76,34.29 116.1,32.91 115.44,31.53 116.79,31.54 118.14,31.55 117.45,32.92 			"/>
		</g>
	</g>
	<g>
		<path class="st3" d="M17.58,59.92c-0.83-3.4-3.89-5.93-7.55-5.93s-6.72,2.53-7.55,5.93H17.58z"/>
		<path class="st3" d="M62.36,59.92c-1.16-4.78-5.46-8.33-10.6-8.33s-9.44,3.55-10.6,8.33L62.36,59.92z"/>
		<path class="st3" d="M46.46,59.92c-1.81-7.44-8.51-12.96-16.5-12.96s-14.69,5.52-16.5,12.96H46.46z"/>
	</g>
	<g>
		<path class="st0" d="M164.21,57.42c-0.55-2.28-2.61-3.98-5.06-3.98c-2.45,0-4.51,1.69-5.06,3.98L164.21,57.42z"/>
		<path class="st0" d="M194.23,57.42c-0.78-3.2-3.66-5.58-7.11-5.58c-3.44,0-6.33,2.38-7.11,5.58L194.23,57.42z"/>
		<path class="st0" d="M183.57,57.42c-1.21-4.99-5.7-8.69-11.06-8.69s-9.85,3.7-11.06,8.69L183.57,57.42z"/>
	</g>
	<g>
		<path class="st1" d="M172.3,33.29c-0.49-2.04-2.33-3.55-4.52-3.55s-4.02,1.51-4.52,3.55H172.3z"/>
		<path class="st1" d="M164.71,33.29c-1.31-5.41-6.19-9.43-12-9.43c-5.81,0-10.69,4.02-12,9.43L164.71,33.29z"/>
	</g>
</g>
<g id="Layer_6">
	<g>
		<path class="st0" d="M135.49,56.38h-2.24c-5.8,0-10.5-4.7-10.5-10.5v-2.24c0-5.8,4.7-10.5,10.5-10.5h2.24
			c5.8,0,10.5,4.7,10.5,10.5v2.24C145.99,51.67,141.29,56.38,135.49,56.38z"/>
		<path class="st4" d="M143.14,37.15c0.72,1.56,1.12,3.3,1.12,5.13l0,0c0,6.83-5.54,12.37-12.37,12.37c-1.83,0-3.57-0.41-5.13-1.12
			c2.04,1.77,4.69,2.85,7.61,2.85c6.42,0,11.62-5.2,11.62-11.62l0,0C145.99,41.84,144.91,39.19,143.14,37.15z"/>
		<circle class="st4" cx="135.69" cy="41.67" r="1.63"/>
		<circle class="st4" cx="132.8" cy="36.67" r="2.37"/>
		<circle class="st4" cx="127.35" cy="44.49" r="3.01"/>
		<circle class="st4" cx="141.28" cy="41.93" r="0.73"/>
		<circle class="st4" cx="133.35" cy="48.92" r="1.7"/>
		<circle class="st0" cx="142.08" cy="47.62" r="2.01"/>
		<circle class="st4" cx="142.19" cy="47.21" r="1.37"/>
	</g>
</g>
<g id="Layer_5">
	<g>
		<path class="st5" d="M78.26,49.91h-1.54c-3.98,0-7.21-3.23-7.21-7.21v-1.54c0-3.98,3.23-7.21,7.21-7.21h1.54
			c3.98,0,7.21,3.23,7.21,7.21v1.54C85.47,46.68,82.24,49.91,78.26,49.91z"/>
		<g>
			<path class="st5" d="M78.17,27.58l1.2,2.39c0.25,0.51-0.12,1.11-0.69,1.11h-2.39c-0.57,0-0.94-0.6-0.69-1.11l1.2-2.39
				C77.08,27.02,77.89,27.02,78.17,27.58z"/>
			<path class="st5" d="M76.8,56.27l-1.2-2.39c-0.25-0.51,0.12-1.11,0.69-1.11h2.39c0.57,0,0.94,0.6,0.69,1.11l-1.2,2.39
				C77.89,56.84,77.08,56.84,76.8,56.27z"/>
		</g>
		<g>
			<path class="st5" d="M88.11,32.27l-0.85,2.54c-0.18,0.54-0.87,0.7-1.27,0.3l-1.69-1.69c-0.4-0.4-0.24-1.09,0.3-1.27l2.54-0.85
				C87.74,31.1,88.31,31.67,88.11,32.27z"/>
			<path class="st5" d="M66.86,51.59l0.85-2.54c0.18-0.54,0.87-0.7,1.27-0.3l1.69,1.69c0.4,0.4,0.24,1.09-0.3,1.27l-2.54,0.85
				C67.23,52.76,66.66,52.19,66.86,51.59z"/>
		</g>
		<g>
			<path class="st5" d="M67.83,31.3l2.54,0.85c0.54,0.18,0.7,0.87,0.3,1.27l-1.69,1.69c-0.4,0.4-1.09,0.24-1.27-0.3l-0.85-2.54
				C66.66,31.67,67.23,31.1,67.83,31.3z"/>
			<path class="st5" d="M87.15,52.56l-2.54-0.85c-0.54-0.18-0.7-0.87-0.3-1.27L86,48.75c0.4-0.4,1.09-0.24,1.27,0.3l0.85,2.54
				C88.31,52.19,87.74,52.76,87.15,52.56z"/>
		</g>
		<g>
			<path class="st5" d="M63.14,41.24l2.39-1.2c0.51-0.25,1.11,0.12,1.11,0.69v2.39c0,0.57-0.6,0.94-1.11,0.69l-2.39-1.2
				C62.58,42.33,62.58,41.53,63.14,41.24z"/>
			<path class="st5" d="M91.83,42.61l-2.39,1.2c-0.51,0.25-1.11-0.12-1.11-0.69v-2.39c0-0.57,0.6-0.94,1.11-0.69l2.39,1.2
				C92.4,41.53,92.4,42.33,91.83,42.61z"/>
		</g>
	</g>
</g>
<g id="Layer_4">
</g>
<g id="Layer_3">
</g>
<g id="Layer_9">
	<g>
		<g>
			<path class="st6" d="M157.97,135.5H66.59c-0.65,0-1.18-0.53-1.18-1.18s0.53-1.18,1.18-1.18h91.38c0.65,0,1.18,0.53,1.18,1.18
				S158.62,135.5,157.97,135.5z"/>
			<path class="st6" d="M63.2,135.5h-9.69c-0.65,0-1.18-0.53-1.18-1.18s0.53-1.18,1.18-1.18h9.69c0.65,0,1.18,0.53,1.18,1.18
				S63.86,135.5,63.2,135.5z"/>
		</g>
	</g>
	<g>
		<g>
			<polygon class="st7" points="113.73,116.89 109.44,96.16 116.95,95.68 118.28,116.35 			"/>
		</g>
		<polygon class="st8" points="112.69,111.94 117.96,110.84 117.99,111.76 112.88,112.84 		"/>
		<polygon class="st8" points="112.42,110.61 117.84,109.51 117.89,110.53 112.63,111.58 		"/>
		<g>
			<path class="st7" d="M109.55,79.43c0-0.44-0.14-0.82-0.36-1.11l0-0.02c0,0-3.33-5.49-4.72-7.86c-1.49-2.52-2.73-3.9-2.78-3.97
				l-0.06-0.1l0,0l0,0c-1.32-1.81-3.8-2.02-5.44-0.37c-1.64,1.65-1.72,4.41-0.24,6.07l0.02,0.01l-0.01,0l9.74,9.59
				c0.42,0.53,1.12,0.75,1.87,0.52C108.7,81.86,109.59,80.63,109.55,79.43z"/>
		</g>
		<g>
			<g>
				<path class="st9" d="M119.3,73.57c0.66-0.14,1.32,0.31,1.52,1.05c0.1,0.37,0.06,0.76-0.11,1.1c-0.17,0.34-0.45,0.58-0.78,0.67
					c-0.33,0.1-0.68,0.05-0.99-0.15s-0.53-0.51-0.61-0.88c-0.1-0.37-0.06-0.76,0.11-1.1s0.45-0.58,0.78-0.67
					C119.25,73.58,119.27,73.57,119.3,73.57z"/>
			</g>
			<g>
				<polygon class="st9" points="118.93,73.82 117.12,75.06 117.76,76.62 119.91,76.31 				"/>
			</g>
		</g>
		<path class="st7" d="M118.7,77.49L118.7,77.49c-0.01,0-6.58,2.92-8.16,3.66c-1.58,0.74-2.61,0.99-2.65,1.01l-0.05,0.04l0,0l0,0
			c-1.15,0.4-2.37-0.31-2.74-1.58c-0.37-1.29,0.24-2.64,1.37-3.04l0.01,0l0,0l11.16-3.4L118.7,77.49z"/>
		<polygon class="st7" points="118.04,78.03 118.87,77.61 117.82,74.01 116.9,74.14 		"/>
		<path class="st10" d="M115.89,74.65l1.08,3.64c-0.23,0.11-0.49,0.22-0.74,0.34l-1.11-3.75L115.89,74.65z"/>
		<path class="st11" d="M84.79,116.99c-0.55-2.76-1.91-5.23-3.83-7.15c-0.65-0.65-1.36-1.24-2.13-1.75
			c-0.73-0.49-1.5-0.91-2.32-1.25c-1.67-0.71-3.51-1.09-5.43-1.09c-3.86,0-7.37,1.56-9.89,4.1c-2.53,2.53-4.1,6.04-4.1,9.88
			c0,3.86,1.56,7.37,4.1,9.9c2.52,2.53,6.02,4.1,9.89,4.1c3.86,0,7.37-1.56,9.89-4.1c1.96-1.96,3.34-4.5,3.86-7.33
			c0.15-0.83,0.23-1.69,0.23-2.57C85.05,118.79,84.96,117.88,84.79,116.99z M77.23,125.89c-1.58,1.58-3.75,2.55-6.16,2.55
			c-2.39,0-4.58-0.98-6.16-2.55c-1.58-1.56-2.55-3.75-2.55-6.16c0-2.39,0.99-4.58,2.55-6.15c1.58-1.6,3.75-2.57,6.16-2.57
			c1.03,0,2.02,0.18,2.94,0.51c0.84,0.3,1.62,0.73,2.31,1.26c0.32,0.24,0.62,0.51,0.9,0.79c1,0.99,1.76,2.24,2.18,3.62
			c0.11,0.37,0.2,0.76,0.26,1.15c0.07,0.45,0.11,0.91,0.11,1.37c0,0.41-0.03,0.81-0.08,1.2c-0.07,0.53-0.19,1.05-0.36,1.55
			C78.9,123.78,78.17,124.95,77.23,125.89z"/>
		<path class="st11" d="M155.08,116.42c-0.55-2.76-1.91-5.23-3.83-7.15c-0.65-0.65-1.36-1.24-2.13-1.75
			c-0.73-0.49-1.5-0.91-2.32-1.25c-1.67-0.71-3.51-1.09-5.43-1.09c-3.86,0-7.37,1.56-9.89,4.1c-2.53,2.53-4.1,6.04-4.1,9.88
			c0,3.86,1.56,7.37,4.1,9.9c2.52,2.53,6.02,4.1,9.89,4.1c3.86,0,7.37-1.56,9.89-4.1c1.96-1.96,3.34-4.5,3.86-7.33
			c0.15-0.83,0.23-1.69,0.23-2.57C155.35,118.22,155.25,117.31,155.08,116.42z M147.53,125.32c-1.58,1.58-3.75,2.55-6.16,2.55
			c-2.39,0-4.58-0.98-6.16-2.55c-1.58-1.56-2.55-3.75-2.55-6.16c0-2.39,0.99-4.58,2.55-6.15c1.58-1.6,3.75-2.57,6.16-2.57
			c1.03,0,2.02,0.18,2.94,0.51c0.84,0.3,1.62,0.73,2.31,1.26c0.32,0.24,0.62,0.51,0.9,0.79c1,0.99,1.76,2.24,2.18,3.62
			c0.11,0.37,0.2,0.76,0.26,1.15c0.07,0.45,0.11,0.91,0.11,1.37c0,0.41-0.03,0.81-0.08,1.2c-0.07,0.53-0.19,1.05-0.36,1.55
			C149.2,123.21,148.47,124.38,147.53,125.32z"/>
		<path class="st12" d="M135.58,107.57c0.65,1.65-3.67,7.85-8.1,10.23c0.25-2.4,1.12-4.67,2.48-6.6c0.41-0.57,0.85-1.12,1.34-1.63
			c0.72-0.75,1.54-1.43,2.42-2.01c0.68-0.45,1.4-0.84,2.17-1.16L135.58,107.57z"/>
		<path class="st12" d="M59.43,122.17c-0.03-0.36,0.24-0.68,0.6-0.7c0.36-0.03,0.68,0.23,0.7,0.59c0.03,0.39,0.1,0.79,0.21,1.19
			c0.56,2.15,2.14,4.08,4.17,5.41c2.04,1.35,4.49,2.1,6.8,1.93c0.46-0.04,0.92-0.12,1.37-0.24c0.35-0.09,0.71,0.12,0.8,0.48
			c0.09,0.35-0.12,0.71-0.47,0.8c-0.52,0.12-1.06,0.21-1.6,0.26c-2.61,0.21-5.36-0.63-7.62-2.14c-2.27-1.51-4.06-3.7-4.73-6.17
			C59.54,123.12,59.47,122.65,59.43,122.17L59.43,122.17z"/>
		<path class="st12" d="M87.91,118.38c-0.95-1.26-5.02-7.42-6.91-9.48c-5.89-6.41-15.22-3.1-15.22-3.1c-4.7,1.42-7.84,6.87-8.62,10
			c-0.4,1.62-1.61,2.37-1.61,2.37l-1.61,1.09v1.04l4.39-1.97c0.41-0.19,0.73-0.54,0.87-0.97c0.7-2.21,3.56-9.13,11.74-9.13
			c9.72,0,12.84,9.5,12.84,9.5L87.91,118.38z"/>
		<path class="st13" d="M71.81,124.01c2.35-0.41,3.94-2.67,3.53-5.02c-0.41-2.35-2.67-3.94-5.02-3.53
			c-2.36,0.41-3.94,2.67-3.53,5.02C67.21,122.84,69.47,124.42,71.81,124.01L71.81,124.01z"/>
		<path class="st12" d="M66.95,121.34l1.93-1.93c0.46-0.46,1.06-0.77,1.7-0.88l12.76-2.19c0.62-0.11,1.26-0.08,1.87,0.06l3.05,0.74
			c0.32,0.08,0.65,0.12,0.98,0.12h2.34c0.32,0,0.61,0.17,0.77,0.45l2.34,4.08h-3.2c-0.14,0-0.25,0.1-0.28,0.23
			c-0.05,0.19-0.24,0.43-0.93,0.43H67.42C66.83,122.45,66.54,121.75,66.95,121.34z"/>
		<path class="st12" d="M72.45,119.68c-0.2,0.75-0.96,1.21-1.73,1.01c-0.75-0.2-1.21-0.96-1.02-1.72l4.44-17.35
			c0.2-0.75,0.96-1.21,1.73-1.01c0.75,0.2,1.21,0.96,1.03,1.72L72.45,119.68z"/>
		<path class="st12" d="M87.28,118.48c-0.13,0.27-0.46,0.38-0.73,0.24c-0.27-0.13-0.38-0.46-0.25-0.73l3.07-6.19
			c0.13-0.27,0.46-0.38,0.73-0.24c0.27,0.13,0.38,0.46,0.25,0.73L87.28,118.48z"/>
		<path class="st12" d="M87.9,116.91c0.05,0.3-0.15,0.58-0.46,0.62c-0.3,0.05-0.58-0.15-0.62-0.45l-1.09-6.82
			c-0.05-0.3,0.15-0.58,0.46-0.62c0.3-0.05,0.58,0.15,0.63,0.45L87.9,116.91z"/>
		<path class="st12" d="M60.42,99.91l-2.33-0.11c-0.72-0.03-1.29-0.65-1.25-1.37l0.01-0.28c0.03-0.72,0.65-1.29,1.37-1.25l2.33,0.11
			c0.72,0.03,1.29,0.65,1.25,1.37l-0.01,0.28C61.76,99.39,61.14,99.95,60.42,99.91z"/>
		<path class="st11" d="M99.6,122.76l-4.35,1.29l-7.64-12.12l-13.63-10.02l-15.8-1.73c-0.29-0.03-0.51-0.27-0.51-0.56v-2.73
			c0-0.29,0.25-0.53,0.54-0.51l18.45,1.34c0.96,0.07,1.87-0.42,2.35-1.25l0.88-1.54l24.03,4.89c0.39,0.03,0.75,0.2,1.03,0.47
			c0.96,0.97,3.2,3.27,3.32,3.62c0.11,0.35-0.45,0.93,0,1.34c0.47,0.43,5.09,4.81,3.32,12.2S99.6,122.76,99.6,122.76z"/>
		<path class="st11" d="M53.7,91.73l3.98,0.57l2.41,0.78l1.22,2.52c0,0,0.43,1.42,1.65,1.42c1.22,0,12.02,0.88,12.02,0.88
			s1.49,0.29,2.75-0.07c0.47-0.13,0.87-0.43,1.16-0.82l0,0c0.09-0.12,0.63-0.26,0.65-0.41l0.4-4.71L53.7,91.73z"/>
		<path class="st14" d="M99.31,113.41l-0.01-0.01C99.31,113.4,99.31,113.4,99.31,113.41C99.31,113.41,99.31,113.41,99.31,113.41z"/>
		<path class="st14" d="M99.3,113.39L99.3,113.39C99.3,113.4,99.3,113.39,99.3,113.39z"/>
		<polygon class="st11" points="118.98,116.18 118.98,116.18 118.9,117.26 118.39,124.4 98.97,124.4 98.97,116.18 		"/>
		<path class="st15" d="M134.89,103.64c0,0,10.15-1.72,15.89,3.71c0.2,0.19,0.07,0.53-0.21,0.53h-6.79c0,0-1.72-0.14-1.72,1.21
			s-0.14,2.41-1,3.14s-1.31,0.83-1.31,0.83L134.89,103.64z"/>
		<path class="st11" d="M135.41,108.41l-8.42,9.73l-3.7,4.27c-1.54,1.78-3.77,2.83-6.13,2.85h-0.09l0.18-0.86l1.5-7.14l0.23-1.08v0
			l4.12-19.65c0,0,0.16-0.82,0-1.89c-0.13-0.88-0.47-1.94-1.28-2.86c-1.8-2.05-2.25-7.45-2.25-7.45l1.99-1.18l9.7,13.92
			L135.41,108.41z"/>
		<path class="st12" d="M142.72,118.5c0.36,0.69,0.1,1.54-0.61,1.91c-0.69,0.36-1.54,0.1-1.9-0.59L129.5,98.09
			c-0.36-0.69-0.1-1.54,0.61-1.91c0.69-0.36,1.54-0.1,1.92,0.59L142.72,118.5z"/>
		<path class="st16" d="M122.96,90.27l-1.39-7.12l2.7-1.5c0.31-0.17,0.7-0.17,1.01,0.02l8.01,4.83c1.01,0.61,1.86,1.45,2.48,2.46
			l3.97,6.47c0.25,0.4,0.38,0.87,0.38,1.34v2.85c0,0.48-0.34,0.9-0.81,1.01l-1.87,0.41l-0.67,7.26c-0.02,0.27-0.29,0.44-0.55,0.36
			l-3.01-0.94c-0.3-0.09-0.54-0.31-0.65-0.6l-4.08-10.33c-0.21-0.53-0.52-1-0.93-1.4l-3.92-3.87
			C123.29,91.18,123.06,90.75,122.96,90.27z"/>
		<path class="st13" d="M142.11,123.44c2.35-0.41,3.94-2.67,3.53-5.02c-0.41-2.35-2.67-3.94-5.02-3.53
			c-2.36,0.41-3.94,2.67-3.53,5.02C137.5,122.27,139.76,123.84,142.11,123.44L142.11,123.44z"/>
		<path class="st11" d="M96.44,124.86c-0.77-0.05-1.37-0.72-1.32-1.49s0.74-1.34,1.51-1.29l20.51,0.6c0.98-0.03,1.81-0.2,2.49-0.5
			c0.61-0.28,1.1-0.68,1.51-1.2l3.69-8.08c0.32-0.7,1.15-1,1.86-0.7c0.72,0.31,1.05,1.14,0.73,1.84l-4.31,8.19
			c-0.06,0.09-0.1,0.19-0.16,0.28c-0.69,0.95-1.61,1.7-2.71,2.18c-1.07,0.48-2.29,0.72-3.66,0.76c-0.05,0.01-0.12,0.01-0.15,0.01
			L96.44,124.86z"/>
		<path class="st11" d="M121.25,83.75c-0.03-0.13-2.22-3.74-2.22-3.74l2.75-2.61l1.91,5.01L121.25,83.75z"/>
		<path class="st11" d="M120.04,76.76c-0.49,0-0.95-0.29-1.16-0.76l-2.87-6.35c-0.2-0.42-0.14-0.93,0.15-1.3s0.76-0.56,1.22-0.49
			l1.74,0.27c0.37,0.05,0.69,0.27,0.88,0.59c0.2,0.32,0.25,0.69,0.14,1.05l-0.51,1.69l1.59,3.48c0.29,0.64,0,1.4-0.64,1.69
			C120.4,76.73,120.21,76.76,120.04,76.76z"/>
		<path class="st17" d="M124.4,84.3c0,0,3.36-0.37,8.59,6.28c5.23,6.65,3.8,11.14,3.8,11.14"/>
		<polygon class="st7" points="121.84,83.42 137.25,103.08 137.44,101.04 123.16,82.69 		"/>
		<path class="st12" d="M127.1,100.01l-0.42,12.19l-5.59,5.05h-9.49l0.47-1.08h6.91l4.12-19.65c0,0,0.16-0.82,0-1.89l3.27,3.45
			C126.86,98.61,127.13,99.3,127.1,100.01z"/>
		<path class="st18" d="M111.05,117.12"/>
		<path class="st14" d="M111.82,117.06c-0.03,0.1-0.13,0.17-0.24,0.15c-8.38-1.54-11.86-3.71-12.09-3.88
			c-0.01-0.01-0.02-0.01-0.02-0.01L79.83,98.75l4.58-1.71l21.81,5.65c0.4,0.11,0.74,0.36,0.96,0.71l0.82,1.29
			c0,0,0.17,0.28,0.29,0.66C113.59,110.22,112.15,115.98,111.82,117.06z"/>
		<path class="st7" d="M108.29,105.36l-28.46-6.61l4.58-1.71l21.81,5.65c0.4,0.11,0.74,0.37,0.96,0.71l0.82,1.29
			C108,104.7,108.17,104.98,108.29,105.36z"/>
		<path class="st16" d="M110.49,118.36c-0.02,0-0.05,0-0.07,0.01c-8.66,1.52-14.1-2.53-14.1-2.53L77.77,101.2
			c-0.41-0.32-0.38-0.96,0.07-1.24l1.53-0.95c0.26-0.16,0.59-0.15,0.84,0.03l19.22,14.25c0.03,0.02,0.06,0.04,0.09,0.05
			c0.37,0.2,3.06,1.56,11.81,3.77c0.03,0.01,0.06,0.01,0.09,0.01c0.52,0.02,5.22,0.17,8.84,0.09c0.57-0.01,1.12-0.23,1.54-0.62
			l4.88-4.46c0.01-0.01,0.01-0.01,0.02-0.02l6.04-4.96c0.13-0.11,0.01,0.16,0.16,0.23l1.4,0.64c0.09,0.04,0.33-0.14,0.37-0.05
			l0.74,0.42c0.33-0.36-0.6,0.69-0.72,0.82l-9.02,10.44c-0.25,0.28-0.72,0.16-0.78-0.21c-0.07-0.47-0.33-0.95-1-1.15
			c-0.04-0.01-0.09-0.02-0.13-0.02L110.49,118.36z"/>
		<path class="st12" d="M79.01,96.3c0,0-1.02-1.9-0.4-3.8c0.63-1.92,7.08,1.19,15.25,1.15c9.06-0.04,11.74-1.95,14.7,4.38
			c3.06,6.55-0.82,4.84-0.82,4.84C107.71,103.5,95.22,99,79.01,96.3z"/>
		<path class="st12" d="M123.69,121.12h-19.9c-3.49,0-6.92-1.18-9.67-3.33l-18.57-14.53l-12.1-1.32c-0.76-0.08-1.31-0.77-1.23-1.53
			c0.08-0.76,0.77-1.31,1.53-1.23l12.88,1.41l19.2,15.02c2.26,1.77,5.09,2.75,7.97,2.75h19.9c0.76,0,1.38,0.62,1.38,1.38
			C125.07,120.5,124.45,121.12,123.69,121.12z"/>
		<path class="st11" d="M120.18,80.41c-0.41,0-0.81-0.12-1.15-0.39l-1.86-1.38l-3.19-0.61c-1.05-0.2-1.72-1.2-1.54-2.25
			c0.2-1.05,1.2-1.72,2.25-1.54l3.65,0.69c0.29,0.05,0.56,0.17,0.79,0.35l2.21,1.65c0.84,0.64,1.01,1.84,0.39,2.68
			C121.34,80.14,120.77,80.41,120.18,80.41z"/>
		<path class="st19" d="M105.98,60.74c-0.02,0.02-0.03,0.02-0.05,0.03v-0.02C105.95,60.76,105.96,60.74,105.98,60.74L105.98,60.74z"
			/>
		<path class="st12" d="M148.34,129.05c-0.32,0.18-0.72,0.06-0.89-0.26c-0.18-0.32-0.08-0.72,0.24-0.88
			c0.35-0.19,0.67-0.42,0.99-0.68c1.73-1.39,2.83-3.63,3.21-6.03c0.39-2.42,0.06-4.96-1.05-6.99c-0.23-0.4-0.49-0.79-0.79-1.15
			c-0.22-0.28-0.18-0.7,0.11-0.92c0.28-0.22,0.7-0.18,0.92,0.09c0.33,0.42,0.63,0.87,0.9,1.35c1.27,2.29,1.64,5.14,1.2,7.82
			c-0.44,2.69-1.69,5.23-3.66,6.86C149.16,128.56,148.76,128.82,148.34,129.05L148.34,129.05z"/>
		<g>
			<path class="st7" d="M98.74,86.22l16.38,6.6c1.44,0.58,2.18,2.18,1.67,3.65l0,0c-0.51,1.48-2.09,2.29-3.59,1.83l-16.87-5.1
				L98.74,86.22z"/>
		</g>
		<g>
			<path class="st14" d="M89.71,86.96l11.79,1.24l12.21,6.49l-1.81,5.39l-14.23-2.64c-3.59-0.67-6.48-3.3-7.48-6.81L89.71,86.96z"/>
		</g>
		<ellipse class="st20" cx="98.87" cy="88.95" rx="2.82" ry="2.82"/>
		<path class="st14" d="M101.49,86.01l-0.01,2.82l0.01,0.13c-0.01,1.51-1.19,2.74-2.69,2.81l-5.78,0.26
			c-1.51,0.07-2.79-1.06-2.93-2.56l-0.01-0.13l-0.26-2.81L101.49,86.01z"/>
		<path class="st9" d="M95.95,59.58l5.17-0.05l0.05,5.59l0,0l0,0l0,0l0,0c0.02,1.43-1.1,1.94-2.53,1.96
			c-1.43,0.02-2.62-0.47-2.64-1.9l0,0L95.95,59.58z"/>
		<g>
			<g>
				<path class="st21" d="M102.42,49.86l3.44,0.12c1.29,0.05,2.22,1.14,1.94,2.3l-0.72,2.88c-0.15,0.6-0.71,1.02-1.33,1l-3.54-0.12
					L102.42,49.86z"/>
				<path class="st9" d="M102.04,62.58c-2.9-0.1-5.16-2.53-5.05-5.42l0.2-5.76l7.73,0.27c0.93,0.03,1.66,0.81,1.63,1.75l-0.22,6.37
					c-0.06,1.62-1.43,2.9-3.05,2.84L102.04,62.58L102.04,62.58z"/>
				<path class="st21" d="M104.59,47.18l-0.97-0.03c-1.72-0.06-3.4,0.54-4.68,1.69l-1.05,0.93l0,0c-1.67-0.06-3,1.39-2.81,3.05
					l0.48,4l2.85,0.1c0.34,0.01,0.63-0.26,0.64-0.6l0.04-1.05c0.17-0.78,0.87-1.36,1.7-1.33l-0.33-1.88l3.11,0.11
					c1,0.04,1.98-0.36,2.61-1.1C107.68,49.29,106.35,47.24,104.59,47.18z"/>
				<path class="st9" d="M96.85,55.27L96.85,55.27c-0.79-0.03-1.53,0.54-1.59,1.34c-0.08,0.83,0.57,1.56,1.4,1.59l1.13,0.04
					l0.07-1.87C97.88,55.78,97.43,55.29,96.85,55.27z"/>
			</g>
			<g>
				<path class="st22" d="M105.2,58.87c-0.02,0.7-0.5,1.26-1.11,1.24c-0.59-0.02-1.06-0.59-1.04-1.28L105.2,58.87z"/>
				
					<ellipse transform="matrix(0.0351 -0.9994 0.9994 0.0351 43.3492 156.7066)" class="st21" cx="102.83" cy="55.9" rx="0.44" ry="0.39"/>
				
					<ellipse transform="matrix(0.0351 -0.9994 0.9994 0.0351 45.8304 159.464)" class="st21" cx="105.5" cy="56" rx="0.44" ry="0.39"/>
				<path class="st21" d="M103.41,54.38L103.41,54.38c0.03,0.12-0.04,0.26-0.16,0.26l-1.56,0.14l0,0c0.02-0.21,0.18-0.39,0.36-0.4
					l1.17-0.14C103.3,54.23,103.38,54.28,103.41,54.38z"/>
				<path class="st21" d="M104.98,54.45L104.98,54.45c-0.04,0.11,0.02,0.26,0.14,0.27l1.55,0.25l0,0c-0.01-0.21-0.15-0.4-0.33-0.42
					l-1.16-0.22C105.08,54.33,105,54.37,104.98,54.45z"/>
			</g>
		</g>
		
			<ellipse transform="matrix(0.7385 -0.6743 0.6743 0.7385 -50.5416 103.544)" class="st23" cx="108.21" cy="116.92" rx="1.65" ry="1.85"/>
		<path class="st23" d="M111.31,119.22l-5.24-0.39l0.39-2.04l3.49,0.26l1.79,1.23c0.15,0.11,0.21,0.29,0.19,0.47l0,0
			C111.87,119.04,111.59,119.25,111.31,119.22z"/>
		<g>
			<g>
				<polygon class="st14" points="105.86,116.6 107.25,95.48 114.61,97.01 110.4,117.29 				"/>
			</g>
			<polygon class="st8" points="106.18,111.55 111.55,111.89 111.33,112.79 106.12,112.47 			"/>
			<polygon class="st8" points="106.28,110.19 111.79,110.58 111.56,111.58 106.21,111.19 			"/>
		</g>
		<path class="st14" d="M97.43,64.29l2.22,0.26c2.95,0.35,5.08,2.97,4.83,5.92l-1.36,16.06c-0.08,0.99-0.96,1.73-1.96,1.64
			l-10.72-0.99c-1.04-0.1-1.78-1.05-1.61-2.08l2.65-16.34C91.95,65.92,94.57,63.95,97.43,64.29z"/>
		<g>
			<defs>
				<path id="SVGID_1_" d="M97.43,64.29l2.22,0.26c2.95,0.35,5.08,2.97,4.83,5.92l-1.36,16.06c-0.08,0.99-0.96,1.73-1.96,1.64
					l-10.72-0.99c-1.04-0.1-1.78-1.05-1.61-2.08l2.65-16.34C91.95,65.92,94.57,63.95,97.43,64.29z"/>
			</defs>
			<clipPath id="SVGID_00000173156496212807326240000010181912309186026150_">
				<use xlink:href="#SVGID_1_"  style="overflow:visible;"/>
			</clipPath>
			<g style="clip-path:url(#SVGID_00000173156496212807326240000010181912309186026150_);">
				
					<rect x="89.88" y="72.69" transform="matrix(0.9985 0.0554 -0.0554 0.9985 4.2009 -5.3175)" class="st8" width="16.4" height="0.94"/>
				
					<rect x="89.65" y="74.04" transform="matrix(0.9985 0.0554 -0.0554 0.9985 4.2748 -5.303)" class="st8" width="16.4" height="0.94"/>
			</g>
		</g>
		<path class="st7" d="M95.81,63.02l-0.13,1.9c0,0,0.61,1.62,2.12,1.95c1.62,0.26,3.22-0.36,3.17-0.33l0.46-0.48l-0.01-0.82
			c0,0-1.38-1.76-3.03-1.76C96.75,63.45,95.81,63.02,95.81,63.02z"/>
		<path class="st7" d="M90.54,74.6l-1.7,10.51c-0.17,1.03,0.57,1.98,1.61,2.08l10.72,0.99c0.82,0.08,1.57-0.42,1.85-1.16
			l-13.14-2.27L90.54,74.6z"/>
		<g>
			
				<rect x="97.83" y="81.77" transform="matrix(-0.9958 -0.0916 0.0916 -0.9958 191.7351 172.5561)" class="st7" width="3.99" height="0.21"/>
			
				<rect x="101" y="82.5" transform="matrix(-0.0916 0.9958 -0.9958 -0.0916 193.2266 -11.0551)" class="st7" width="1.32" height="0.21"/>
		</g>
		<path class="st25" d="M109.8,59.63c-0.02,0.02-0.03,0.02-0.05,0.03l0-0.02C109.77,59.65,109.79,59.63,109.8,59.63L109.8,59.63z"/>
		<g>
			<g>
				<g>
					<path class="st7" d="M94.01,48.22c0,0-1.8,1.64-2.1,4.11c-0.3,2.47-0.1,6.14,1.38,8.09c2.18,2.87,10.71,4.13,12.41,3.3
						c1.7-0.83,2.52-2.41,2.61-3.23c0.1-0.81-0.11-1.47-0.11-1.47c0.21-2.22,0.2-2.06-0.12-4.09c-0.32-2.02-0.63-2.4-0.63-2.4
						s-1-3.56-4.32-5.33C98.59,44.78,94.01,48.22,94.01,48.22z"/>
				</g>
			</g>
			<path class="st14" d="M108.42,58.74c0,0,0.98,0.3,1.08,1.31c0.1,1.03-0.52,3.09-1.61,3.53c-0.76,0.3-2.9,0.47-4.52,0.4
				c-1.82-0.08-3.37-0.51-3.37-0.51s3.86,0.06,4.39-0.48c0.53-0.53,0.02-2.95,0.02-2.95s1.66,0.07,2.9-0.16
				C108.18,59.75,108.86,59.41,108.42,58.74z"/>
			<g>
				<path class="st26" d="M107.39,52.31c0.04,0.13,0.07,0.21,0.07,0.21s0.3,0.38,0.63,2.4c0.32,2.04,0.32,2.05,0.5,3.81
					c0,0,0.19,0.58-0.23,0.78c-1.51,0.74-3.71,0.64-5.76,0.31c-0.16-2.37-0.07-4.77,0.02-7.17
					C104.85,52.65,106.43,52.47,107.39,52.31z"/>
				<path class="st27" d="M96.46,53.85c0.63-0.98,1.95-1.58,3.67-1.26c0.44,0.03,0.94,0.04,1.48,0.05c0.36,0.02,0.69,0.02,1.03,0.02
					c0.29,1.41,0.36,4.71-0.02,7.17c-1.39-0.23-2.7-0.57-3.65-0.84c-1.21-0.59-2.01-1.32-2.47-2.09
					C95.87,55.81,95.91,54.69,96.46,53.85z"/>
			</g>
			<path class="st14" d="M101.54,46.16c0,0,3.56,0.33,6.66,2.59c2.39,1.73,2.58,2.71,1.91,3.55c-0.67,0.85-6.89,0.39-8.51,0.33
				c-1.63-0.06-1.63-0.06-1.63-0.06s4.81,0.38,3.71-1.85c-0.77-1.56-2.91-2.46-4.69-2.96s-3.77-0.27-3.77-0.27s0.78-0.48,2.03-0.86
				C98.4,46.25,99.91,45.97,101.54,46.16z"/>
			<g>
				<path class="st14" d="M105.95,55.96c0.02,0.16,0.18,0.29,0.34,0.28l0,0c0.16-0.02,0.29-0.18,0.26-0.34l-0.24-2.04
					c-0.02-0.16-0.18-0.29-0.34-0.28l0,0c-0.16,0.02-0.29,0.18-0.26,0.34L105.95,55.96z"/>
			</g>
			<g>
				<path class="st14" d="M106.98,57.85c0.02,0.16,0.18,0.29,0.34,0.28l0,0c0.16-0.02,0.29-0.18,0.26-0.34l-0.37-3.85
					c-0.02-0.16-0.18-0.29-0.34-0.28l0,0c-0.16,0.02-0.29,0.18-0.26,0.34L106.98,57.85z"/>
			</g>
		</g>
		<path class="st28" d="M96.12,46.99c0,0,3.08-0.35,6.15,0.4c3.07,0.73,5.42,2.76,5.49,3.89c0.08,1.13-1.11,1.54-1.11,1.54
			s1.43,0.07,1.9-0.12c0.47-0.18,1.73-2.8-2.75-4.76c-4.55-1.99-7.95-1.5-7.95-1.5S96.41,46.81,96.12,46.99z"/>
		
			<ellipse transform="matrix(0.6054 -0.796 0.796 0.6054 2.1898 106.0479)" class="st28" cx="108.04" cy="50.82" rx="1.26" ry="1.62"/>
		<g>
			<path class="st23" d="M106.63,60.89c-0.08,0-0.13,0.07-0.12,0.15l0,0c0,0.08,0.07,0.13,0.15,0.12l0.93-0.11
				c0.08,0,0.13-0.07,0.12-0.15l0,0c0-0.08-0.07-0.13-0.15-0.12L106.63,60.89z"/>
		</g>
		<path class="st14" d="M110.26,82.43c0.02-0.46-0.1-0.88-0.33-1.19l0-0.02c0,0-3.45-5.99-4.91-8.55c-1.55-2.74-2.89-4.26-2.94-4.35
			l-0.07-0.11l0,0l0,0c-1.42-1.99-4.28-2.37-6.33-0.75c-2.06,1.62-2.35,4.51-0.75,6.35l0.01,0.02l0,0l10.65,10.7
			c0.44,0.58,1.24,0.86,2.15,0.66C109.07,84.92,110.2,83.7,110.26,82.43z"/>
		<path class="st7" d="M105.01,72.67c-0.59-1.04-1.13-1.88-1.61-2.57l-1.28,1.33l2.42,2.89l1.48,0.21
			C105.68,73.89,105.33,73.25,105.01,72.67z"/>
		<g>
			<path class="st9" d="M119.36,74.21c0.69-0.25,1.49,0.1,1.8,0.84c0.17,0.38,0.18,0.78,0.04,1.15c-0.12,0.37-0.39,0.67-0.73,0.82
				c-0.35,0.16-0.73,0.16-1.09,0c-0.35-0.15-0.65-0.45-0.8-0.81c-0.17-0.38-0.18-0.78-0.04-1.15c0.12-0.37,0.39-0.67,0.73-0.82
				C119.31,74.23,119.34,74.22,119.36,74.21z"/>
		</g>
		<g>
			<polygon class="st9" points="119,74.53 117.24,76.1 118.19,77.62 120.47,76.95 			"/>
		</g>
		<path class="st14" d="M119.34,78.37L119.34,78.37c-0.01,0-6.66,4.08-8.25,5.11c-1.59,1.04-2.66,1.44-2.72,1.48L108.32,85l0,0l0,0
			c-1.17,0.59-2.62,0.05-3.22-1.2c-0.6-1.25-0.16-2.78,1-3.37l0.01,0l0,0l11.55-5.31L119.34,78.37z"/>
		<g>
			<path class="st14" d="M113.66,94.72c0.92,0.3,1.33,1.39,0.93,2.42c-0.41,1.05-1.48,1.67-2.41,1.4c-0.95-0.28-1.4-1.37-0.97-2.45
				C111.63,95.03,112.73,94.41,113.66,94.72z"/>
		</g>
		<g>
			<path class="st14" d="M82.68,84.23l0.01,4.74c0,1.6-1.28,2.89-2.88,2.89l-30.22,0.08c-1.6,0-2.89-1.28-2.9-2.88l-0.04-13.04
				L58.76,76L65.08,83l17.6-0.05L82.68,84.23z"/>
			<g>
				<path class="st16" d="M82.67,86.52l-17.6,0.06l-6.32-8.36l-12.1,0.04l-0.02-10.19c0-1.9,1.3-3.45,2.89-3.46l30.22-0.1
					c1.6,0,2.89,1.53,2.9,3.44L82.67,86.52z"/>
				<g>
					<path class="st29" d="M67.75,72.77c-0.25,0-0.43,0.1-0.65,0.18c-0.22,0.08-0.46,0.17-0.8,0.17c-0.47,0-1.25-0.18-1.25-1.18
						c0,0,0.37,0.1,1.21,0.1c1.83,0.01,2.26-0.76,2.26-1.55c0-1.13-0.94-1.88-2.28-1.87c-1.3,0-2.64,0.94-2.64,3
						c0.01,1.58,0.96,2.74,2.6,2.74c0.93,0,1.95-0.54,2.19-0.9C68.4,73.45,68.21,72.77,67.75,72.77z M66.29,69.85
						c0.63,0,0.93,0.33,0.93,0.65c0,0.37-0.33,0.6-0.93,0.6c-0.87,0-1.2-0.11-1.2-0.11C65.09,70.47,65.49,69.85,66.29,69.85z"/>
					<path class="st29" d="M71.92,73.13c-0.63,0-0.95-0.53-1.02-0.75c-0.07-0.23-0.1-0.55-0.1-0.88l0.01-1.7l0.45,0
						c0.37,0,0.65-0.1,0.85-0.32c0.2-0.22,0.3-0.5,0.3-0.87l-1.6,0l-0.02-0.75c0-0.23,0-0.43,0-0.58c0-0.15,0.02-0.27,0.02-0.35
						c0-0.1,0.02-0.17,0.02-0.23c-0.48,0-0.86,0.1-1.11,0.32c-0.25,0.2-0.38,0.55-0.38,1.03l-0.01,3.76c0,1.55,0.74,2.54,2.15,2.54
						c0.7,0,1.2-0.37,1.2-0.94c0-0.2-0.03-0.3-0.05-0.37C72.52,73.08,72.29,73.13,71.92,73.13z"/>
					<path class="st29" d="M73.81,68.18c0.12,0.05,0.23,0.08,0.37,0.08c0.3,0,0.53-0.15,0.71-0.43C74.95,67.7,75,67.56,75,67.41
						c0-0.13-0.03-0.27-0.1-0.4c-0.07-0.12-0.17-0.22-0.3-0.28c-0.12-0.07-0.23-0.1-0.35-0.1c-0.13,0-0.27,0.03-0.4,0.12
						c-0.13,0.08-0.23,0.18-0.3,0.33c-0.07,0.12-0.12,0.27-0.12,0.42c0,0.13,0.03,0.27,0.1,0.38
						C73.59,68.02,73.69,68.12,73.81,68.18z"/>
					<path class="st29" d="M75.43,73.19c-0.32,0-0.52-0.23-0.52-0.6l-0.01-2.71c0-0.23,0-0.43,0-0.58c0-0.15,0.02-0.27,0.02-0.35
						c0-0.1,0.02-0.17,0.02-0.23c-0.5,0-0.86,0.1-1.13,0.32c-0.25,0.2-0.38,0.55-0.38,1.03l-0.01,2.76c0,1,0.64,1.53,1.44,1.49
						c0.5-0.02,0.95-0.27,0.95-0.8c0-0.22-0.03-0.4-0.03-0.4C75.68,73.17,75.6,73.19,75.43,73.19z"/>
					<path class="st29" d="M79.01,68.72c-0.3,0-0.62,0.03-0.91,0.1c-0.3,0.07-0.58,0.2-0.83,0.39c-0.25,0.2-0.45,0.45-0.6,0.8
						c-0.15,0.33-0.23,0.78-0.23,1.32l0,1.55c0,0.48,0.07,0.93,0.35,1.15c0.32,0.23,0.68,0.25,1.17,0.25c0-0.05-0.02-0.18-0.02-0.28
						c0-0.08-0.02-0.2-0.02-0.35c0-0.15,0-0.33,0-0.58l-0.01-2c0-0.47,0.08-1.08,0.91-1.15c0.47-0.03,0.88-0.22,0.88-0.73
						c0-0.12-0.03-0.33-0.08-0.47L79.01,68.72z"/>
					<path class="st29" d="M62.8,71.54c0.03-1.73-0.74-2.91-2.49-2.91c-1.7,0.01-2.59,1.21-2.59,2.66c0,1.35,0.82,2.59,2.3,2.59
						c0.76,0,1.21-0.34,1.33-0.42l0,0.67c0,0.77-0.29,1.28-1.08,1.28c-0.37,0-0.65-0.1-0.92-0.23c-0.23-0.12-0.4-0.23-0.63-0.23
						c-0.58,0-0.73,0.72-0.73,0.72c0.43,0.57,1.43,0.96,2.27,0.96c1.65-0.01,2.54-0.97,2.54-2.87C62.81,73.75,62.8,71.84,62.8,71.54
						z M60.32,72.58c-0.63,0-1.13-0.4-1.13-1.28c0-0.95,0.49-1.43,1.13-1.44c0.62,0,1.07,0.36,1.07,1.36
						C61.39,72.24,60.89,72.58,60.32,72.58z"/>
				</g>
			</g>
		</g>
	</g>
</g>
<g id="Layer_2">
	<path class="st22" d="M60.14,103.39H41.2c-0.62,0-1.13-0.51-1.13-1.13s0.51-1.13,1.13-1.13h18.94c0.62,0,1.13,0.51,1.13,1.13
		S60.76,103.39,60.14,103.39z"/>
	<path class="st22" d="M57.88,96.93h-4.41c-0.62,0-1.13-0.51-1.13-1.13s0.51-1.13,1.13-1.13h4.41c0.62,0,1.13,0.51,1.13,1.13
		S58.51,96.93,57.88,96.93z"/>
	<path class="st22" d="M36.56,96.93h-14.1c-0.62,0-1.13-0.51-1.13-1.13s0.51-1.13,1.13-1.13h14.1c0.62,0,1.13,0.51,1.13,1.13
		S37.18,96.93,36.56,96.93z"/>
	<path class="st22" d="M51.28,88.56h-9.26c-0.62,0-1.13-0.51-1.13-1.13s0.51-1.13,1.13-1.13h9.26c0.62,0,1.13,0.51,1.13,1.13
		S51.91,88.56,51.28,88.56z"/>
</g>
</svg>
