<svg width="201" height="176" viewBox="0 0 201 176" fill="none" xmlns="http://www.w3.org/2000/svg">
<g clip-path="url(#clip0)">
<path d="M161.529 131.978C191.721 101.787 191.72 52.8365 161.529 22.6449C131.337 -7.54672 82.3871 -7.54678 52.1956 22.6447C22.0041 52.8362 22.0042 101.786 52.1958 131.978C82.3874 162.17 131.338 162.17 161.529 131.978Z" fill="#F0EFFF"/>
<path d="M106.863 0C149.561 0.00021691 184.175 34.6138 184.175 77.3114C184.175 120.009 149.561 154.622 106.863 154.622L106.863 0Z" fill="#9988EF"/>
<path d="M153.537 58.9808L155.004 58.2793L156.471 57.5776L156.456 59.0109L156.441 60.4445L154.989 59.7126L153.537 58.9808Z" fill="#5D38BE"/>
<path d="M159.368 59.0413L157.901 59.7428L156.435 60.4443L156.45 59.0109L156.464 57.5776L157.916 58.3095L159.368 59.0413Z" fill="#5D38BE"/>
<path d="M156.483 56.0954L157.185 57.5622L157.886 59.0289L156.453 59.0142L155.02 58.9992L155.751 57.5474L156.483 56.0954Z" fill="#5D38BE"/>
<path d="M156.422 61.9266L155.721 60.4598L155.019 58.9931L156.452 59.0079L157.886 59.0228L157.154 60.4746L156.422 61.9266Z" fill="#5D38BE"/>
<path d="M165.281 36.4893L166.075 36.11L166.867 35.7306L166.859 36.5056L166.851 37.2806L166.066 36.885L165.281 36.4893Z" fill="#5D38BE"/>
<path d="M168.434 36.5228L167.641 36.9022L166.848 37.2815L166.856 36.5065L166.864 35.7315L167.649 36.1272L168.434 36.5228Z" fill="#5D38BE"/>
<path d="M166.873 34.9303L167.252 35.7233L167.632 36.5163L166.857 36.5083L166.082 36.5003L166.477 35.7153L166.873 34.9303Z" fill="#5D38BE"/>
<path d="M166.841 38.0828L166.462 37.2898L166.083 36.4968L166.858 36.5048L167.633 36.5128L167.237 37.2978L166.841 38.0828Z" fill="#5D38BE"/>
<path d="M115.15 22.2583L116.616 21.5568L118.083 20.8553L118.068 22.2887L118.053 23.722L116.601 22.9902L115.15 22.2583Z" fill="#5D38BE"/>
<path d="M120.981 22.318L119.514 23.0197L118.047 23.7212L118.062 22.2879L118.077 20.8543L119.529 21.5862L120.981 22.318Z" fill="#5D38BE"/>
<path d="M118.095 19.3724L118.797 20.8391L119.498 22.3059L118.065 22.2909L116.632 22.2761L117.363 20.8242L118.095 19.3724Z" fill="#5D38BE"/>
<path d="M118.035 25.2034L117.334 23.7366L116.632 22.2699L118.065 22.2846L119.499 22.2996L118.767 23.7514L118.035 25.2034Z" fill="#5D38BE"/>
<path d="M20.6525 78.2402C19.6881 74.267 16.1093 71.3158 11.8394 71.3156C7.56957 71.3153 3.99099 74.2664 3.02661 78.2395L20.6525 78.2402Z" fill="#D3D2F4"/>
<path d="M72.9299 78.2419C71.5755 72.6621 66.5497 68.5176 60.5534 68.5174C54.5572 68.5172 49.5314 72.6612 48.177 78.241L72.9299 78.2419Z" fill="#D3D2F4"/>
<path d="M54.3727 78.2413C52.2647 69.5571 44.443 63.107 35.1106 63.1066C25.7783 63.1062 17.9566 69.556 15.8486 78.24L54.3727 78.2413Z" fill="#D3D2F4"/>
<path d="M168.456 49.782C167.868 47.3574 165.684 45.5566 163.079 45.5566C160.474 45.5566 158.29 47.3576 157.702 49.7823L168.456 49.782Z" fill="#F0EFFF"/>
<path d="M200.352 49.7816C199.526 46.3766 196.459 43.8476 192.801 43.8476C189.142 43.8476 186.076 46.3768 185.25 49.7818L200.352 49.7816Z" fill="#F0EFFF"/>
<path d="M189.03 49.7816C187.744 44.4821 182.971 40.5463 177.277 40.5463C171.583 40.5463 166.811 44.4825 165.525 49.7821L189.03 49.7816Z" fill="#F0EFFF"/>
<path d="M47.8069 22.4597C47.2184 20.0351 45.0348 18.2343 42.4297 18.2343C39.8246 18.2343 37.6412 20.0353 37.0527 22.46L47.8069 22.4597Z" fill="#F0EFFF"/>
<path d="M79.7031 22.4593C78.8767 19.0542 75.8103 16.5253 72.1516 16.5253C68.493 16.5253 65.4268 19.0545 64.6006 22.4595L79.7031 22.4593Z" fill="#F0EFFF"/>
<path d="M68.3807 22.4593C67.0944 17.1598 62.322 13.2239 56.6279 13.2239C50.9338 13.2239 46.1618 17.1602 44.8757 22.4597L68.3807 22.4593Z" fill="#F0EFFF"/>
<path d="M199.432 77.2816C198.907 75.1173 196.957 73.51 194.632 73.51C192.306 73.51 190.357 75.1175 189.831 77.2816H199.432Z" fill="#9988EF"/>
<path d="M191.362 77.2816C189.967 71.5333 184.789 67.2637 178.612 67.2637C172.434 67.2637 167.256 71.5331 165.861 77.2816H191.362Z" fill="#9988EF"/>
<path d="M89.4727 60.5206C89.0894 58.9418 87.6674 57.7689 85.9705 57.7689C84.2736 57.7689 82.8515 58.9418 82.4683 60.5206H89.4727Z" fill="#D3D2F4"/>
<path d="M83.5855 60.5206C82.5675 56.3266 78.79 53.2118 74.2831 53.2118C69.7761 53.2118 65.9987 56.3266 64.9807 60.5206H83.5855Z" fill="#D3D2F4"/>
<path d="M147.304 50.3152C140.483 50.3152 134.954 44.7862 134.954 37.9659C134.954 31.1456 140.483 25.6166 147.304 25.6166C154.124 25.6166 159.653 31.1456 159.653 37.9659C159.653 44.7864 154.124 50.3152 147.304 50.3152Z" fill="#F0EFFF"/>
<path d="M156.627 29.8835C157.387 31.5463 157.822 33.3891 157.822 35.3374C157.822 42.5983 151.936 48.4839 144.675 48.4839C142.727 48.4839 140.884 48.0492 139.221 47.2887C141.388 49.1693 144.21 50.3153 147.304 50.3153C154.124 50.3153 159.653 44.786 159.653 37.9657C159.653 34.8715 158.508 32.0502 156.627 29.8835Z" fill="#CFCEEF"/>
<path d="M148.71 36.4261C149.668 36.4261 150.444 35.6497 150.444 34.6919C150.444 33.7341 149.668 32.9577 148.71 32.9577C147.752 32.9577 146.976 33.7341 146.976 34.6919C146.976 35.6497 147.752 36.4261 148.71 36.4261Z" fill="#CFCEEF"/>
<path d="M145.632 31.8987C147.022 31.8987 148.15 30.7715 148.15 29.3809C148.15 27.9903 147.022 26.863 145.632 26.863C144.241 26.863 143.114 27.9903 143.114 29.3809C143.114 30.7715 144.241 31.8987 145.632 31.8987Z" fill="#CFCEEF"/>
<path d="M139.846 40.8803C141.61 40.8803 143.04 39.45 143.04 37.6857C143.04 35.9213 141.61 34.491 139.846 34.491C138.081 34.491 136.651 35.9213 136.651 37.6857C136.651 39.45 138.081 40.8803 139.846 40.8803Z" fill="#CFCEEF"/>
<path d="M154.646 35.7385C155.074 35.7385 155.42 35.3919 155.42 34.9643C155.42 34.5368 155.074 34.1902 154.646 34.1902C154.218 34.1902 153.872 34.5368 153.872 34.9643C153.872 35.3919 154.218 35.7385 154.646 35.7385Z" fill="#CFCEEF"/>
<path d="M146.221 44.2019C147.22 44.2019 148.031 43.3915 148.031 42.3918C148.031 41.3921 147.22 40.5817 146.221 40.5817C145.221 40.5817 144.41 41.3921 144.41 42.3918C144.41 43.3915 145.221 44.2019 146.221 44.2019Z" fill="#CFCEEF"/>
<path d="M155.502 43.1453C156.681 43.1453 157.637 42.1897 157.637 41.0109C157.637 39.8321 156.681 38.8765 155.502 38.8765C154.324 38.8765 153.368 39.8321 153.368 41.0109C153.368 42.1897 154.324 43.1453 155.502 43.1453Z" fill="#F0EFFF"/>
<path d="M155.611 42.0271C156.413 42.0271 157.063 41.3772 157.063 40.5754C157.063 39.7736 156.413 39.1236 155.611 39.1236C154.809 39.1236 154.159 39.7736 154.159 40.5754C154.159 41.3772 154.809 42.0271 155.611 42.0271Z" fill="#CFCEEF"/>
<path d="M69.6061 46.4436C64.9239 46.4436 61.1284 42.6479 61.1284 37.9659C61.1284 33.2837 64.9241 29.4882 69.6061 29.4882C74.2883 29.4882 78.0838 33.2839 78.0838 37.9659C78.0838 42.6481 74.2883 46.4436 69.6061 46.4436Z" fill="#FFD100"/>
<path d="M70.3343 22.7234L71.6065 25.268C71.8772 25.8094 71.4835 26.4462 70.8783 26.4462H68.3337C67.7286 26.4462 67.3349 25.8094 67.6056 25.268L68.8777 22.7234C69.1779 22.1234 70.0343 22.1234 70.3343 22.7234Z" fill="#FFD100"/>
<path d="M68.878 53.2084L67.6058 50.6638C67.3351 50.1224 67.7288 49.4855 68.334 49.4855H70.8785C71.4837 49.4855 71.8774 50.1224 71.6067 50.6638L70.3345 53.2084C70.0343 53.8085 69.178 53.8085 68.878 53.2084Z" fill="#FFD100"/>
<path d="M80.899 27.7024L79.9995 30.4014C79.8082 30.9756 79.0793 31.1476 78.6514 30.7196L76.8521 28.9203C76.4241 28.4924 76.5962 27.7636 77.1703 27.5722L79.8691 26.6725C80.5055 26.4604 81.1111 27.066 80.899 27.7024Z" fill="#FFD100"/>
<path d="M58.3132 48.2294L59.2127 45.5304C59.404 44.9562 60.1329 44.7842 60.5608 45.2122L62.3601 47.0114C62.788 47.4394 62.616 48.1682 62.0419 48.3595L59.3431 49.2593C58.7067 49.4714 58.1011 48.8658 58.3132 48.2294Z" fill="#FFD100"/>
<path d="M59.3433 26.6731L62.0421 27.5727C62.6163 27.764 62.7883 28.4928 62.3603 28.9208L60.5611 30.72C60.1331 31.148 59.4043 30.976 59.213 30.4018L58.3134 27.703C58.1013 27.0664 58.7069 26.4608 59.3433 26.6731Z" fill="#FFD100"/>
<path d="M79.8693 49.2589L77.1706 48.3593C76.5964 48.168 76.4244 47.4392 76.8523 47.0112L78.6516 45.212C79.0796 44.784 79.8084 44.956 79.9997 45.5302L80.8992 48.229C81.1114 48.8654 80.5058 49.471 79.8693 49.2589Z" fill="#FFD100"/>
<path d="M54.3637 37.2385L56.9083 35.9664C57.4497 35.6956 58.0865 36.0893 58.0865 36.6945V39.2391C58.0865 39.8443 57.4497 40.238 56.9083 39.9672L54.3637 38.6951C53.7635 38.3949 53.7635 37.5385 54.3637 37.2385Z" fill="#FFD100"/>
<path d="M84.8486 38.6941L82.304 39.9662C81.7626 40.2369 81.1257 39.8433 81.1257 39.2381V36.6935C81.1257 36.0883 81.7626 35.6946 82.304 35.9653L84.8486 37.2375C85.4487 37.5377 85.4487 38.3941 84.8486 38.6941Z" fill="#FFD100"/>
<path d="M60.5595 128.693C60.348 127.236 60.6109 125.908 61.2412 124.813L61.2579 124.775C61.2579 124.775 70.3744 104.782 74.1892 96.1932C78.2515 87.0479 82.0316 81.8171 82.1735 81.5512L82.3405 81.1802L82.3648 81.1961C82.3661 81.1939 82.3672 81.1915 82.3685 81.1894C86.2284 74.461 95.1889 72.3757 102.189 76.8683C109.189 81.3609 111.022 90.374 106.509 96.683C106.494 96.7038 106.478 96.7231 106.463 96.7437L106.492 96.763L76.0553 133.887C74.8282 135.862 72.3809 136.989 69.4511 136.676C65.0836 136.21 61.1384 132.68 60.5595 128.693Z" fill="#4722AF"/>
<path d="M74.1896 96.1932C75.7151 92.7589 77.2087 89.8642 78.4898 87.5689L82.9792 91.3553L76.209 101.256L71.6196 102.356C72.4489 100.261 73.3226 98.1454 74.1896 96.1932Z" fill="#5D38BE"/>
<path d="M32.8519 95.5644C33.9503 96.2405 34.7205 97.3042 35.019 98.5592C35.3181 99.8145 35.1101 101.111 34.434 102.21C33.7577 103.308 32.694 104.078 31.4391 104.377C30.1832 104.676 28.8844 104.466 27.7888 103.792C26.6903 103.115 25.9201 102.052 25.6216 100.797C25.3225 99.5414 25.5305 98.2449 26.2068 97.1463C27.5445 94.9726 30.3372 94.2302 32.5642 95.4002C32.6612 95.4514 32.7573 95.506 32.8519 95.5644Z" fill="#E7C2B6"/>
<path d="M33.6945 96.6298L39.0257 102.526L35.3246 106.876L27.9375 103.55L33.6945 96.6298Z" fill="#E7C2B6"/>
<path d="M31.1743 108.665L31.2014 108.687C31.2014 108.687 52.0302 125.052 57.0289 129.167C61.9859 133.247 65.4578 135.123 65.6029 135.227L65.7881 135.38L65.7972 135.366C65.7985 135.367 65.7996 135.368 65.8009 135.369C69.504 137.873 74.5359 136.901 77.0403 133.198C79.5445 129.495 78.5728 124.463 74.8699 121.959C74.8573 121.951 74.8445 121.943 74.8319 121.935L74.843 121.918L38.0282 99.0872L31.1743 108.665Z" fill="#4722AF"/>
<path d="M33.0983 111.07L30.478 108.84L37.4634 98.4152L40.655 99.8232L33.0983 111.07Z" fill="#4722AF"/>
<path d="M43.8093 102.552L36.6819 113.091C37.4239 113.688 38.2113 114.322 39.0236 114.976L46.3827 104.094L43.8093 102.552Z" fill="#BEC7D9"/>
<path d="M169.412 127.963C167.941 127.899 166.685 127.393 165.727 126.569L165.693 126.546C165.693 126.546 147.752 113.859 140.026 108.508C131.799 102.811 127.366 98.1215 127.131 97.9326L126.798 97.6992L126.817 97.6782C126.816 97.6764 126.814 97.6749 126.812 97.6734C120.922 92.6259 120.545 83.4337 126.265 77.3947C131.984 71.356 141.181 71.2369 146.537 76.8479C146.555 76.8663 146.571 76.8859 146.589 76.9043L146.613 76.8787L177.406 113.708C179.117 115.282 179.768 117.897 178.914 120.717C177.641 124.921 173.437 128.138 169.412 127.963Z" fill="#5D38BE"/>
<path d="M140.026 108.508C136.937 106.369 134.372 104.362 132.355 102.674L136.913 98.9703L145.376 107.469L145.602 112.183C143.698 110.978 141.782 109.724 140.026 108.508Z" fill="#47008E"/>
<path d="M127.118 152.443C131.354 151.801 134.268 147.848 133.626 143.612C132.985 139.377 129.031 136.463 124.796 137.105C120.561 137.746 117.647 141.699 118.288 145.935C118.929 150.17 122.883 153.084 127.118 152.443Z" fill="#47008E"/>
<path d="M101.224 152.528C105.501 152.287 108.773 148.624 108.532 144.347C108.291 140.07 104.628 136.798 100.351 137.04C96.0737 137.281 92.802 140.944 93.0431 145.221C93.2843 149.498 96.9471 152.769 101.224 152.528Z" fill="#4921C3"/>
<path d="M92.6531 137.025L93.0338 144.782L93.0524 145.162C93.2552 149.293 96.6637 152.539 100.8 152.539H125.944C130.08 152.539 133.488 149.293 133.691 145.162L133.71 144.782L134.09 137.025H92.6531Z" fill="#47008E"/>
<path d="M139.485 163.335H91.2342C88.8684 163.335 86.8774 161.563 86.6021 159.214L83.9927 133.905L80.9531 111.002C80.2862 105.31 80.261 99.5605 80.8781 93.8625L81.8026 85.3269C82.58 78.1483 88.6409 72.7082 95.8616 72.7082H135.063C142.347 72.7082 148.44 78.242 149.139 85.4931L149.988 94.3061C150.509 99.7108 150.453 105.156 149.821 110.549L144.118 159.213C143.842 161.563 141.851 163.335 139.485 163.335Z" fill="#5D38BE"/>
<path d="M80.7573 109.1C80.8157 109.734 80.879 110.368 80.9532 111.002L81.0879 112.152H149.633L149.821 110.549C149.877 110.066 149.924 109.583 149.971 109.1H80.7573Z" fill="#BEC7D9"/>
<path d="M80.6043 107.137H150.137C150.211 106.12 150.265 105.103 150.298 104.085H80.4646C80.4911 105.103 80.537 106.12 80.6043 107.137Z" fill="#BEC7D9"/>
<path d="M113.531 79.4057H107.37V162.111H113.531V79.4057Z" fill="#4722AF"/>
<path d="M109.261 83.1876C109.737 83.1638 110.104 82.7583 110.08 82.2821C110.056 81.8058 109.651 81.439 109.174 81.4628C108.698 81.4867 108.331 81.8921 108.355 82.3684C108.379 82.8447 108.784 83.2115 109.261 83.1876Z" fill="#340077"/>
<path d="M109.261 97.8379C109.737 97.8141 110.104 97.4086 110.08 96.9323C110.056 96.456 109.65 96.0893 109.174 96.1131C108.698 96.137 108.331 96.5424 108.355 97.0187C108.379 97.495 108.784 97.8617 109.261 97.8379Z" fill="#340077"/>
<path d="M109.26 112.488C109.737 112.464 110.103 112.059 110.079 111.583C110.056 111.106 109.65 110.74 109.174 110.763C108.698 110.787 108.331 111.193 108.355 111.669C108.379 112.145 108.784 112.512 109.26 112.488Z" fill="#340077"/>
<path d="M109.26 127.138C109.736 127.115 110.103 126.709 110.079 126.233C110.055 125.757 109.65 125.39 109.174 125.414C108.697 125.437 108.331 125.843 108.354 126.319C108.378 126.795 108.784 127.162 109.26 127.138Z" fill="#340077"/>
<path d="M109.26 141.789C109.736 141.765 110.103 141.359 110.079 140.883C110.055 140.407 109.65 140.04 109.174 140.064C108.697 140.088 108.331 140.493 108.354 140.969C108.378 141.446 108.784 141.812 109.26 141.789Z" fill="#340077"/>
<path d="M109.26 156.439C109.736 156.415 110.103 156.01 110.079 155.534C110.055 155.057 109.649 154.691 109.173 154.714C108.697 154.738 108.33 155.144 108.354 155.62C108.378 156.096 108.783 156.463 109.26 156.439Z" fill="#340077"/>
<path d="M135.331 137.128H122.759V137.802H135.331V137.128Z" fill="#47008E"/>
<path d="M123.431 141.282L123.431 137.128L122.757 137.128L122.758 141.282L123.431 141.282Z" fill="#47008E"/>
<path d="M86.6976 137.802L99.2705 137.802L99.2705 137.128L86.6976 137.128L86.6976 137.802Z" fill="#47008E"/>
<path d="M99.2702 141.283L99.2705 137.128L98.597 137.128L98.5967 141.282L99.2702 141.283Z" fill="#47008E"/>
<path d="M121.604 99.0995C121.087 99.0995 120.471 98.8453 120.204 98.4987C120.203 98.4963 120.301 98.0551 120.659 98.0551C120.8 98.0551 120.905 98.1332 121.046 98.2009C121.205 98.277 121.376 98.3399 121.608 98.3399C122.089 98.3399 122.275 98.0221 122.275 97.5454V97.1328C122.207 97.1922 121.93 97.3948 121.454 97.3948C120.535 97.3948 120.029 96.6207 120.029 95.7908C120.029 94.8947 120.58 94.1588 121.63 94.1588C122.705 94.1588 123.178 94.8904 123.178 95.9596C123.178 96.1511 123.178 97.3337 123.178 97.3337C123.178 98.5076 122.619 99.0995 121.604 99.0995ZM125.327 96.9506C125.531 96.9506 125.69 96.9022 125.823 96.8469C125.951 96.7938 126.067 96.7333 126.224 96.7333C126.522 96.7333 126.631 97.1519 126.63 97.1534C126.471 97.379 125.841 97.7044 125.267 97.7044C124.247 97.7044 123.658 96.9838 123.658 96.0092C123.658 94.7314 124.493 94.1585 125.291 94.1585C126.13 94.1585 126.704 94.6186 126.704 95.3205C126.704 95.8138 126.433 96.2906 125.305 96.2906C124.781 96.2906 124.551 96.224 124.551 96.224C124.551 96.8369 125.042 96.9506 125.327 96.9506ZM128.533 97.7091C127.664 97.7091 127.21 97.0851 127.21 96.1329L127.218 93.8035C127.218 93.5074 127.297 93.2953 127.454 93.1668C127.612 93.0384 127.842 92.9742 128.143 92.9742C128.138 93.0089 128.133 93.0558 128.128 93.1148C128.123 93.1692 128.12 93.2419 128.117 93.3332C128.115 93.4245 128.113 93.544 128.113 93.6922L128.121 94.1585H129.113C129.113 94.3807 129.051 94.5583 128.928 94.6917C128.804 94.8249 128.629 94.8915 128.402 94.8915H128.121L128.113 95.9426C128.113 96.1498 128.139 96.3474 128.176 96.4882C128.213 96.6287 128.412 96.956 128.801 96.956C129.03 96.956 129.169 96.9228 129.246 96.9031C129.258 96.943 129.274 97.0068 129.274 97.1304C129.274 97.4792 128.962 97.7091 128.533 97.7091ZM129.81 93.2228C129.856 93.1369 129.919 93.0699 130 93.0215C130.081 92.9736 130.164 92.9495 130.25 92.9495C130.326 92.9495 130.399 92.9697 130.47 93.01C130.551 93.0506 130.612 93.1087 130.653 93.1846C130.693 93.2605 130.713 93.3414 130.713 93.4273C130.713 93.5184 130.691 93.6046 130.645 93.6855C130.539 93.8627 130.392 93.9512 130.205 93.9512C130.124 93.9512 130.048 93.9336 129.977 93.898C129.901 93.8523 129.843 93.7931 129.802 93.7195C129.762 93.6464 129.742 93.5666 129.742 93.4805C129.742 93.3848 129.764 93.2987 129.81 93.2228ZM130.639 97.7044C130.144 97.7241 129.751 97.3864 129.751 96.774L129.758 95.062C129.758 94.7659 129.837 94.5538 129.995 94.4254C130.153 94.2969 130.385 94.2327 130.691 94.2327C130.686 94.2674 130.681 94.3143 130.676 94.3735C130.671 94.428 130.668 94.5006 130.665 94.5919C130.663 94.6833 130.661 94.8028 130.661 94.9509V96.6318C130.661 96.8612 130.785 97.0009 130.977 97.0009C131.076 97.0009 131.127 96.9877 131.2 96.9677C131.2 96.9677 131.222 97.0771 131.222 97.2144C131.222 97.5432 130.951 97.692 130.639 97.7044ZM133.071 94.9787C132.557 95.0219 132.51 95.3958 132.51 95.6871V96.9198C132.51 97.0677 132.511 97.1875 132.514 97.2788C132.516 97.3701 132.52 97.4428 132.525 97.4972C132.53 97.5564 132.535 97.6412 132.54 97.671C132.239 97.671 132.012 97.6642 131.817 97.5163C131.639 97.3805 131.6 97.1048 131.6 96.8087V95.8465C131.6 95.516 131.648 95.2459 131.744 95.0362C131.84 94.8264 131.965 94.6622 132.118 94.5438C132.271 94.4253 132.442 94.3451 132.632 94.3032C132.822 94.2614 133.011 94.2403 133.199 94.2403H133.561C133.599 94.321 133.614 94.4579 133.614 94.5305C133.614 94.844 133.36 94.9542 133.071 94.9787Z" fill="#FFD100"/>
<path d="M125.896 95.324C125.896 95.1309 125.712 94.9201 125.324 94.9201C124.834 94.9201 124.578 95.2941 124.578 95.622C124.578 95.6231 124.783 95.6986 125.321 95.6986C125.692 95.6984 125.896 95.5524 125.896 95.324Z" fill="#5D38BE"/>
<path d="M121.625 94.9188C121.237 94.9188 120.929 95.2212 120.929 95.8038C120.929 96.35 121.231 96.599 121.625 96.599C121.982 96.599 122.284 96.3864 122.284 95.7589C122.284 95.1485 122.006 94.9188 121.625 94.9188Z" fill="#5D38BE"/>
<path d="M126.703 95.3208C126.703 94.6188 126.128 94.1588 125.289 94.1588C124.491 94.1588 123.657 94.7314 123.657 96.0095C123.657 96.984 124.246 97.7046 125.266 97.7046C125.84 97.7046 126.47 97.3792 126.629 97.1536C126.63 97.1521 126.521 96.7335 126.223 96.7335C126.066 96.7335 125.95 96.794 125.822 96.8472C125.688 96.9027 125.53 96.9508 125.326 96.9508C125.041 96.9508 124.55 96.8372 124.55 96.2242C124.55 96.2242 124.779 96.2908 125.304 96.2908C126.431 96.2906 126.703 95.814 126.703 95.3208ZM125.324 94.9201C125.712 94.9201 125.896 95.131 125.896 95.324C125.896 95.5524 125.692 95.6984 125.321 95.6984C124.783 95.6984 124.578 95.6231 124.578 95.6218C124.577 95.2941 124.834 94.9201 125.324 94.9201Z" fill="#FFD100"/>
<path d="M128.8 96.956C128.411 96.956 128.212 96.6287 128.175 96.4881C128.138 96.3474 128.112 96.1498 128.112 95.9426L128.12 94.8915H128.401C128.628 94.8915 128.803 94.8249 128.927 94.6917C129.05 94.5583 129.112 94.3807 129.112 94.1585H128.12L128.112 93.6922C128.112 93.5443 128.114 93.4245 128.116 93.3332C128.119 93.2419 128.122 93.169 128.127 93.1148C128.132 93.0558 128.137 93.0087 128.142 92.9742C127.841 92.9742 127.611 93.0384 127.453 93.1668C127.296 93.2952 127.217 93.5074 127.217 93.8035L127.209 96.1328C127.209 97.0853 127.663 97.7091 128.532 97.7091C128.961 97.7091 129.273 97.479 129.273 97.1304C129.273 97.0068 129.257 96.943 129.245 96.9031C129.168 96.923 129.029 96.956 128.8 96.956Z" fill="#FFD100"/>
<path d="M129.976 93.8982C130.047 93.9336 130.123 93.9514 130.204 93.9514C130.391 93.9514 130.538 93.8629 130.644 93.6857C130.69 93.6048 130.713 93.5187 130.713 93.4276C130.713 93.3417 130.692 93.2605 130.652 93.1848C130.611 93.1089 130.55 93.0508 130.47 93.0102C130.399 92.9699 130.325 92.9497 130.249 92.9497C130.163 92.9497 130.08 92.9738 129.999 93.0217C129.918 93.0699 129.855 93.1369 129.809 93.223C129.764 93.2989 129.741 93.385 129.741 93.4811C129.741 93.567 129.761 93.6469 129.802 93.7202C129.842 93.7933 129.9 93.8527 129.976 93.8982Z" fill="#FFD100"/>
<path d="M130.976 97.0007C130.784 97.0007 130.66 96.861 130.66 96.6315V94.9507C130.66 94.8026 130.661 94.683 130.664 94.5917C130.666 94.5004 130.67 94.4277 130.675 94.3733C130.68 94.3141 130.685 94.2672 130.69 94.2325C130.384 94.2325 130.152 94.2967 129.994 94.4251C129.836 94.5535 129.757 94.7657 129.757 95.0618L129.75 96.7738C129.75 97.3862 130.143 97.7239 130.638 97.7042C130.95 97.6918 131.221 97.543 131.221 97.2142C131.221 97.0769 131.199 96.9675 131.199 96.9675C131.126 96.9875 131.075 97.0007 130.976 97.0007Z" fill="#FFD100"/>
<path d="M133.197 94.2403C133.01 94.2403 132.821 94.2614 132.631 94.3032C132.441 94.3451 132.27 94.4254 132.117 94.5438C131.963 94.6622 131.839 94.8262 131.743 95.0362C131.647 95.2459 131.598 95.5162 131.598 95.8465V96.8088C131.598 97.1048 131.637 97.3807 131.816 97.5163C132.011 97.6643 132.237 97.671 132.538 97.671C132.533 97.6413 132.528 97.5564 132.524 97.4972C132.519 97.4428 132.515 97.3701 132.513 97.2788C132.51 97.1875 132.509 97.0677 132.509 96.9198V95.6871C132.509 95.3958 132.556 95.0219 133.07 94.9787C133.359 94.9544 133.613 94.844 133.613 94.5306C133.613 94.4577 133.597 94.3208 133.56 94.2403H133.197Z" fill="#FFD100"/>
<path d="M121.629 94.1588C120.578 94.1588 120.027 94.8948 120.027 95.7908C120.027 96.6207 120.534 97.3949 121.452 97.3949C121.929 97.3949 122.206 97.1923 122.273 97.1328V97.5454C122.273 98.0222 122.088 98.3399 121.607 98.3399C121.375 98.3399 121.204 98.277 121.045 98.2009C120.904 98.1332 120.799 98.0551 120.657 98.0551C120.3 98.0551 120.201 98.4963 120.203 98.4987C120.47 98.8453 121.086 99.0995 121.602 99.0995C122.617 99.0995 123.177 98.5076 123.177 97.3335C123.177 97.3335 123.177 96.1509 123.177 95.9593C123.177 94.8902 122.704 94.1588 121.629 94.1588ZM121.624 96.5992C121.231 96.5992 120.929 96.3502 120.929 95.804C120.929 95.2214 121.237 94.919 121.624 94.919C122.005 94.919 122.284 95.1485 122.284 95.7591C122.284 96.3867 121.982 96.5992 121.624 96.5992Z" fill="#FFD100"/>
<path d="M104.322 72.4644H127.69V68.8396C127.69 68.0613 127.215 67.362 126.492 67.0748L126.477 67.069C119.837 64.4329 112.09 64.445 105.489 67.0562C104.783 67.3353 104.322 68.0223 104.322 68.7815V72.4644Z" fill="#4722AF"/>
<path d="M125.907 71.9679L121.084 79.4638C121.084 79.4638 113.356 81.8568 112.281 81.7063C111.206 81.5557 109.811 79.9868 109.056 79.1732C108.3 78.3598 104.639 71.2124 104.639 71.2124L125.907 71.9679Z" fill="#340077"/>
<path d="M115.692 79.7573C119.86 79.7573 123.239 76.3787 123.239 72.2108V53.5377H108.146V72.2108C108.146 76.3787 111.525 79.7573 115.692 79.7573Z" fill="#E7C2B6"/>
<path d="M108.123 73.0852L118.144 67.8681L118.497 61.5267L108.123 62.2135V73.0852Z" fill="#DF9C93"/>
<path d="M103.406 48.1527L108.875 48.438L109.71 32.443L104.241 32.1578C99.8237 31.9274 96.0564 35.3212 95.826 39.7381C95.5956 44.1549 98.9894 47.9224 103.406 48.1527Z" fill="#693711"/>
<path d="M118.77 63.2759L124.569 63.5782C127.772 63.7453 130.503 61.2844 130.67 58.0818L131.24 47.1645L119.642 46.5595L118.77 63.2759Z" fill="#693711"/>
<path d="M105.939 68.5162L113.099 68.8897C118.944 69.1947 123.929 64.7036 124.234 58.8589L125.418 35.9954L99.3809 34.6373L98.0764 59.7888C97.8378 64.3698 101.358 68.2772 105.939 68.5162Z" fill="#E7C2B6"/>
<path d="M120.475 30.4405L118.738 30.3499L117.988 44.8585C117.887 46.7966 119.376 48.4497 121.315 48.5507L131.141 49.0633L131.469 42.6434C131.803 36.2381 126.881 30.7746 120.475 30.4405Z" fill="#693711"/>
<path d="M124.401 55.6897L120.922 55.5081L121.103 52.0287C121.203 50.1071 122.842 48.6306 124.764 48.7308C126.686 48.831 128.162 50.4702 128.062 52.3916C127.962 54.3134 126.323 55.7899 124.401 55.6897Z" fill="#E7C2B6"/>
<path d="M103.072 57.4746C103.048 59.527 104.652 61.2105 106.655 61.2345C108.659 61.2586 110.302 59.6142 110.327 57.5616L103.072 57.4746Z" fill="white"/>
<path d="M111.539 49.6172C112.268 49.5789 112.828 48.9568 112.79 48.2277C112.752 47.4986 112.13 46.9385 111.401 46.9768C110.671 47.015 110.111 47.6371 110.15 48.3663C110.188 49.0954 110.81 49.6555 111.539 49.6172Z" fill="#693711"/>
<path d="M102.469 49.617C103.198 49.5787 103.758 48.9566 103.72 48.2275C103.681 47.4983 103.059 46.9383 102.33 46.9765C101.601 47.0148 101.041 47.6369 101.079 48.366C101.118 49.0952 101.74 49.6552 102.469 49.617Z" fill="#693711"/>
<path d="M109.71 43.7621C109.572 44.1208 109.812 44.5126 110.194 44.554L115.467 45.1238C115.404 44.4881 114.91 43.9801 114.276 43.8985L110.331 43.3907C110.063 43.3562 109.806 43.5096 109.71 43.7621Z" fill="#693711"/>
<path d="M104.383 43.8199C104.521 44.1787 104.281 44.5704 103.899 44.6119L98.6255 45.1817C98.689 44.5459 99.1827 44.0379 99.8165 43.9564L103.761 43.4486C104.03 43.4141 104.287 43.5677 104.383 43.8199Z" fill="#693711"/>
<path d="M118.356 38.461L96.9706 37.4862C94.7378 37.3721 93.0173 35.4741 93.1222 33.2406C93.2279 30.9943 95.1393 29.2618 97.3849 29.3766L120.475 30.4403L118.356 38.461Z" fill="#693711"/>
<path d="M110.92 73.9686L110.453 80.5733C110.453 80.5733 104.43 76.6481 104.322 72.4646V69.7142C104.322 69.0797 105.13 68.8101 105.508 69.3194C106.692 70.9141 108.658 73.1331 110.92 73.9686Z" fill="#4722AF"/>
<path d="M112.281 81.7063L112.388 74.0556C112.388 74.0556 118.652 73.8442 121.744 72.4867C123.426 71.7484 125.242 70.3087 126.433 69.1136C126.897 68.6483 127.69 68.9795 127.69 69.6363V72.4644C127.69 72.4644 130.24 79.7888 112.281 81.7063Z" fill="#4722AF"/>
<path d="M150.332 100.821L136.174 163.335H139.485C141.851 163.335 143.842 161.563 144.117 159.214L150.176 110.549C150.555 107.318 150.367 104.069 150.332 100.821Z" fill="#4722AF"/>
<path d="M158.882 126.756C158.882 126.756 163.833 130.917 164.939 137.453C166.045 143.989 165.926 153.768 162.225 159.124C156.765 167.024 134.21 171.389 129.588 169.374C124.966 167.359 122.603 163.248 122.274 161.102C121.945 158.956 122.405 157.161 122.405 157.161C121.567 151.282 121.621 151.706 122.249 146.269C122.875 140.858 123.626 139.796 123.626 139.796C123.626 139.796 125.856 130.191 134.489 125.108C146.261 118.178 158.882 126.756 158.882 126.756Z" fill="#3516A0"/>
<path d="M121.814 156.469C121.814 156.469 119.252 157.369 119.116 160.106C118.981 162.844 120.84 168.272 123.811 169.315C125.845 170.03 131.588 170.234 135.89 169.857C140.727 169.432 144.785 168.12 144.785 168.12C144.785 168.12 134.531 168.751 133.066 167.388C131.6 166.025 132.684 159.538 132.684 159.538C132.684 159.538 128.265 159.935 124.98 159.465C122.541 159.117 120.727 158.29 121.814 156.469Z" fill="#4722AF"/>
<path d="M123.779 139.234C123.674 139.59 123.626 139.795 123.626 139.795C123.626 139.795 122.874 140.857 122.249 146.269C121.621 151.706 121.62 151.755 121.382 156.455C121.382 156.455 120.943 158.016 122.059 158.505C126.145 160.295 132.015 159.779 137.388 158.641C137.518 152.306 136.977 145.951 136.473 139.596C130.598 139.859 126.336 139.547 123.779 139.234Z" fill="#1C1148"/>
<path d="M153.046 142.038C151.251 139.516 147.694 138.085 143.125 139.123C141.93 139.233 140.633 139.34 139.199 139.441C138.254 139.507 137.347 139.558 136.473 139.597C135.864 143.372 136.094 152.146 137.388 158.642C141.06 157.865 144.502 156.8 146.977 155.971C150.125 154.275 152.168 152.212 153.283 150.113C154.832 147.198 154.593 144.213 153.046 142.038Z" fill="#0E0831"/>
<path d="M138.608 122.215C138.608 122.215 129.168 123.519 121.199 129.877C115.061 134.774 114.66 137.383 116.523 139.572C118.387 141.76 134.889 139.793 139.199 139.441C143.51 139.088 143.51 139.088 143.51 139.088C143.51 139.088 130.77 140.656 133.437 134.597C135.292 130.381 140.897 127.688 145.578 126.16C150.26 124.631 155.564 124.964 155.564 124.964C155.564 124.964 153.406 123.801 150.055 122.906C146.991 122.087 142.928 121.492 138.608 122.215Z" fill="#4722AF"/>
<path d="M128.044 148.814C128.013 149.268 127.624 149.611 127.176 149.579C126.727 149.548 126.389 149.154 126.42 148.7L126.797 143.232C126.828 142.777 127.217 142.434 127.666 142.466C128.114 142.497 128.452 142.891 128.421 143.345L128.044 148.814Z" fill="#6300B3"/>
<path d="M125.499 153.921C125.468 154.375 125.079 154.718 124.631 154.687C124.182 154.656 123.844 154.262 123.875 153.808L124.384 143.512C124.415 143.058 124.804 142.715 125.252 142.746C125.701 142.777 126.039 143.171 126.007 143.625L125.499 153.921Z" fill="#6300B3"/>
<path d="M153.137 123.778C153.137 123.778 144.912 123.232 136.833 125.553C128.753 127.874 122.768 133.52 122.686 136.549C122.603 139.577 125.808 140.498 125.808 140.498C125.808 140.498 122.028 140.847 120.768 140.421C119.509 139.996 115.834 133.161 127.539 127.41C139.417 121.573 148.503 122.501 148.503 122.501C148.503 122.501 152.337 123.341 153.137 123.778Z" fill="#FFD100"/>
<path d="M124.013 137.957C125.844 136.43 126.368 134.041 125.183 132.62C123.999 131.198 121.554 131.284 119.723 132.81C117.892 134.336 117.368 136.726 118.553 138.147C119.738 139.568 122.182 139.483 124.013 137.957Z" fill="#FFD100"/>
<path d="M126.837 161.983C127.043 161.997 127.199 162.173 127.184 162.377C127.17 162.58 126.992 162.733 126.786 162.719L124.305 162.549C124.099 162.535 123.944 162.358 123.958 162.155C123.972 161.951 124.151 161.798 124.357 161.812L126.837 161.983Z" fill="#2B1A60"/>
<path d="M133.974 153.23C134.756 152.205 135.891 151.544 137.169 151.372C138.448 151.2 139.717 151.536 140.743 152.318C141.769 153.1 142.429 154.236 142.602 155.514C142.774 156.793 142.436 158.065 141.656 159.088C140.874 160.114 139.739 160.774 138.46 160.946C137.181 161.119 135.912 160.783 134.886 160C132.857 158.453 132.396 155.6 133.782 153.501C133.842 153.409 133.906 153.319 133.974 153.23Z" fill="#E7C2B6"/>
<path d="M135.118 152.498L141.516 147.781L145.476 151.897L141.43 158.916L135.118 152.498Z" fill="#E7C2B6"/>
<path d="M146.842 156.204L146.867 156.179C146.867 156.179 165.225 137.084 169.817 132.52C174.371 127.994 176.583 124.726 176.701 124.592L176.871 124.423L176.859 124.412C176.859 124.411 176.86 124.41 176.862 124.409C179.722 120.974 179.256 115.87 175.821 113.009C172.386 110.149 167.282 110.614 164.422 114.05C164.412 114.061 164.403 114.073 164.394 114.085L164.378 114.072L137.994 148.431L146.842 156.204Z" fill="#5D38BE"/>
<path d="M149.427 154.529L146.947 156.915L137.27 148.926L138.989 145.89L149.427 154.529Z" fill="#5D38BE"/>
<path d="M142.018 143.023L151.795 151.165C152.463 150.486 153.172 149.766 153.903 149.023L143.809 140.616L142.018 143.023Z" fill="#BEC7D9"/>
<path d="M0 173.251L0.00021691 131.585C0.00021691 130.449 0.921649 129.527 2.05804 129.527L64.3337 129.527C65.4703 129.527 66.3915 130.449 66.3915 131.585L66.3913 173.251C66.3913 174.388 65.4698 175.309 64.3335 175.309L2.05782 175.309C0.921432 175.309 0 174.388 0 173.251Z" fill="#5D38BE"/>
<path d="M0.000244141 166.113L0.0082698 173.255C0.010222 174.391 0.933173 175.311 2.06956 175.309L64.3376 175.201C65.474 175.199 66.3937 174.276 66.3917 173.14L66.3479 133.593C52.6683 148.645 26.6686 163.228 0.000244141 166.113Z" fill="#4722AF"/>
<path d="M32.8611 149.935C32.8611 147.927 31.2163 146.611 28.8157 146.611C26.5323 146.611 24.145 148.249 24.145 151.906C24.145 154.694 25.8311 156.756 28.7487 156.756C30.3907 156.756 32.1928 155.825 32.6494 155.179C32.6522 155.175 32.339 153.977 31.4865 153.977C31.0384 153.977 30.7068 154.15 30.3404 154.302C29.9578 154.461 29.5033 154.599 28.9194 154.599C28.1047 154.599 26.7006 154.274 26.7006 152.52C26.7006 152.52 27.3564 152.711 28.858 152.711C32.0833 152.711 32.8611 151.347 32.8611 149.935ZM28.9131 148.789C30.0246 148.789 30.5523 149.392 30.5523 149.945C30.5523 150.599 29.9675 151.016 28.9066 151.016C27.3659 151.016 26.7785 150.801 26.7785 150.797C26.7785 149.859 27.511 148.789 28.9131 148.789Z" fill="#FFD100"/>
<path d="M38.8596 154.615C37.7482 154.615 37.1784 153.679 37.0725 153.276C36.9664 152.874 36.8929 152.308 36.8929 151.715L36.9142 148.707H37.7193C38.3688 148.707 38.8703 148.517 39.223 148.136C39.5759 147.754 39.7524 147.246 39.7524 146.61H36.9142L36.8931 145.276C36.8931 144.853 36.8966 144.51 36.904 144.249C36.9109 143.987 36.9213 143.779 36.9359 143.624C36.9495 143.455 36.9641 143.321 36.9779 143.222C36.1168 143.222 35.4598 143.405 35.008 143.773C34.5561 144.14 34.3303 144.747 34.3303 145.594L34.3091 152.259C34.3091 154.984 35.6075 156.77 38.0942 156.77C39.3208 156.77 40.2149 156.111 40.2149 155.113C40.2149 154.76 40.1676 154.577 40.1338 154.463C39.9142 154.52 39.5164 154.615 38.8596 154.615Z" fill="#FFD100"/>
<path d="M42.2258 145.865C42.4286 145.967 42.6457 146.017 42.8774 146.017C43.4127 146.017 43.8331 145.764 44.1372 145.257C44.2676 145.026 44.3324 144.78 44.3324 144.519C44.3324 144.273 44.2747 144.041 44.1589 143.824C44.0426 143.607 43.8691 143.44 43.6377 143.324C43.4351 143.208 43.2249 143.151 43.0078 143.151C42.7614 143.151 42.5225 143.22 42.2913 143.357C42.0592 143.495 41.8785 143.687 41.7484 143.933C41.6178 144.15 41.5527 144.396 41.5527 144.671C41.5527 144.917 41.6104 145.145 41.7263 145.355C41.8421 145.565 42.0087 145.735 42.2258 145.865Z" fill="#FFD100"/>
<path d="M45.0863 154.743C44.5368 154.743 44.1841 154.343 44.1841 153.687V148.877C44.1841 148.453 44.1874 148.111 44.195 147.85C44.2015 147.588 44.2123 147.38 44.2264 147.225C44.2405 147.056 44.2546 146.922 44.2689 146.822C43.3933 146.822 42.7298 147.006 42.2779 147.373C41.8257 147.741 41.6003 148.348 41.6001 149.195L41.5786 154.094C41.5786 155.846 42.702 156.812 44.1197 156.756C45.0125 156.72 45.7869 156.294 45.7869 155.354C45.7869 154.961 45.7235 154.648 45.7235 154.648C45.5157 154.705 45.3706 154.743 45.0863 154.743Z" fill="#FFD100"/>
<path d="M51.4442 146.844C50.9074 146.844 50.3675 146.904 49.8239 147.024C49.2803 147.144 48.7893 147.374 48.352 147.712C47.914 148.051 47.5576 148.521 47.2822 149.121C47.0071 149.721 46.8694 150.494 46.8694 151.44V154.193C46.8694 155.041 46.9811 155.83 47.4926 156.218C48.05 156.641 48.6979 156.66 49.5591 156.66C49.545 156.576 49.5306 156.333 49.517 156.163C49.5024 156.008 49.492 155.8 49.4851 155.538C49.4775 155.277 49.4743 154.935 49.4743 154.511V150.984C49.4743 150.15 49.6083 149.08 51.0796 148.957C51.9069 148.887 52.6331 148.571 52.6331 147.675C52.6331 147.466 52.5889 147.075 52.4824 146.844H51.4442Z" fill="#FFD100"/>
<path d="M18.3417 146.611C15.3355 146.611 13.7588 148.717 13.7588 151.28C13.7588 153.655 15.209 155.87 17.8363 155.87C19.2004 155.87 19.9915 155.29 20.1856 155.121V156.301C20.1856 157.665 19.655 158.574 18.2783 158.574C17.6157 158.574 17.1259 158.394 16.671 158.176C16.2673 157.983 15.9667 157.759 15.5628 157.759C14.5399 157.759 14.2566 159.022 14.2618 159.029C15.0266 160.02 16.7877 160.748 18.2657 160.748C21.1706 160.748 22.7716 159.054 22.7716 155.694C22.7716 155.694 22.7714 152.311 22.7714 151.763C22.7712 148.704 21.417 146.611 18.3417 146.611ZM18.3289 153.594C17.2016 153.594 16.3396 152.881 16.3396 151.318C16.3396 149.651 17.2211 148.786 18.3291 148.786C19.419 148.786 20.2171 149.443 20.2171 151.19C20.2168 152.986 19.3512 153.594 18.3289 153.594Z" fill="#FFD100"/>
<path d="M12.9817 133.001L25.3573 104.609C26.8995 101.712 29.9139 99.9023 33.1957 99.9023C36.4776 99.9023 39.492 101.712 41.0342 104.609L53.4097 133.001" stroke="#5D38BE" stroke-width="2.5724" stroke-miterlimit="10"/>
<path d="M29.5919 103.692C31.8652 103.692 33.7082 101.849 33.7082 99.5752C33.7082 97.3018 31.8652 95.4589 29.5919 95.4589C27.3185 95.4589 25.4756 97.3018 25.4756 99.5752C25.4756 101.849 27.3185 103.692 29.5919 103.692Z" fill="#E7C2B6"/>
</g>
<defs>
<clipPath id="clip0">
<rect width="200.353" height="175.309" fill="white"/>
</clipPath>
</defs>
</svg>
