<svg width="135" height="46" viewBox="0 0 135 46" fill="none" xmlns="http://www.w3.org/2000/svg">
<path d="M0 10.3389L33.4588 10.3492L31.3202 13.4098H0V10.3389Z" fill="url(#paint0_linear)"/>
<path d="M6.91895 16.4805L29.1773 16.4906L27.0392 19.5514H6.91895V16.4805Z" fill="url(#paint1_linear)"/>
<path d="M13.7661 22.4355L24.8959 22.4457L22.7578 25.5064H13.7661V22.4355Z" fill="url(#paint2_linear)"/>
<path d="M59.5385 33.1283C58.7376 32.9457 57.9586 32.6774 57.215 32.328C56.4729 31.9788 55.7684 31.5547 55.1124 31.0624C54.449 30.5645 53.8353 30.0036 53.28 29.3874C52.7142 28.7586 52.2082 28.0785 51.7686 27.3559C51.318 26.6151 50.936 25.8347 50.6272 25.0244C50.3093 24.1891 50.0678 23.3267 49.9058 22.4478C49.5705 20.6189 49.5705 18.7442 49.9058 16.9153C50.0678 16.0364 50.3092 15.174 50.6271 14.3388C50.9359 13.5285 51.3179 12.7481 51.7685 12.0072C52.2082 11.2846 52.7142 10.6044 53.28 9.97561C53.8351 9.35912 54.4487 8.79784 55.112 8.29965C55.768 7.80733 56.4725 7.38327 57.2147 7.03407C57.9584 6.68502 58.7375 6.41702 59.5385 6.2347C61.1806 5.86308 62.885 5.86308 64.5271 6.2347C65.3281 6.41736 66.1071 6.68567 66.8507 7.035C67.5106 7.34505 68.1409 7.71453 68.7339 8.13885V7.53751C68.7339 6.96986 68.9594 6.42546 69.3608 6.02407C69.7623 5.62268 70.3068 5.39719 70.8745 5.39719H74.4112C74.9789 5.39719 75.5234 5.62268 75.9248 6.02407C76.3262 6.42546 76.5518 6.96986 76.5518 7.53751V30.8019C76.5518 31.3695 76.3262 31.9139 75.9248 32.3153C75.5234 32.7167 74.9789 32.9422 74.4112 32.9422H70.8745C70.3755 32.9421 69.8921 32.7678 69.508 32.4493C69.1238 32.1309 68.863 31.6882 68.7705 31.1979C68.1671 31.6335 67.5246 32.012 66.8512 32.3288C66.1074 32.6779 65.3282 32.946 64.5271 33.1283C62.8848 33.5001 61.1801 33.5001 59.5378 33.1283H59.5385ZM60.976 14.3042C59.6953 14.8432 58.6607 15.8388 58.0728 17.0976C57.485 18.3565 57.3861 19.7889 57.7951 21.1166C58.2042 22.4444 59.092 23.5728 60.2864 24.2828C61.4808 24.9928 62.8964 25.2337 64.2584 24.9587C65.6204 24.6838 66.8317 23.9126 67.657 22.795C68.4824 21.6773 68.8629 20.2928 68.7247 18.9104C68.5865 17.528 67.9395 16.2462 66.9093 15.3139C65.8791 14.3817 64.5392 13.8654 63.1497 13.8654C62.4031 13.8651 61.664 14.0143 60.976 14.3042Z" fill="white"/>
<path d="M85.0212 5.39719C85.5889 5.39719 86.1334 5.62268 86.5348 6.02407C86.9363 6.42546 87.1618 6.96986 87.1618 7.53751V8.13875C87.7546 7.7142 88.3848 7.34447 89.0446 7.03416C89.7884 6.68513 90.5675 6.4171 91.3686 6.2347C93.0109 5.86295 94.7156 5.86295 96.3579 6.2347C97.1589 6.41737 97.9379 6.68568 98.6815 7.035C99.4236 7.3842 100.128 7.80826 100.784 8.30058C101.447 8.7985 102.061 9.35946 102.616 9.97561C103.181 10.6044 103.687 11.2844 104.127 12.007C104.578 12.7478 104.96 13.5283 105.268 14.3385C105.586 15.1738 105.828 16.0362 105.99 16.9152C106.325 18.7441 106.325 20.6188 105.99 22.4477C105.828 23.3266 105.587 24.189 105.269 25.0242C104.96 25.8345 104.578 26.6149 104.127 27.3558C103.688 28.0784 103.181 28.7586 102.616 29.3874C102.061 30.0038 101.447 30.5651 100.784 31.0633C100.128 31.5556 99.4231 31.9796 98.681 32.3288C97.9373 32.678 97.1582 32.946 96.3571 33.1283C94.7151 33.5 93.0107 33.5 91.3686 33.1283C90.5676 32.9457 89.7886 32.6774 89.045 32.328C88.3851 32.018 87.7547 31.6485 87.1618 31.2242V42.8993C87.1618 43.467 86.9363 44.0114 86.5348 44.4128C86.1334 44.8142 85.5889 45.0396 85.0212 45.0396H81.4845C80.9168 45.0396 80.3723 44.8142 79.9709 44.4128C79.5694 44.0114 79.3439 43.467 79.3439 42.8993V7.53751C79.3439 6.96986 79.5694 6.42546 79.9709 6.02407C80.3723 5.62268 80.9168 5.39719 81.4845 5.39719H85.0212ZM94.9197 24.5935C96.2004 24.0545 97.235 23.059 97.8228 21.8001C98.4106 20.5412 98.5096 19.1088 98.1006 17.7811C97.6915 16.4533 96.8036 15.3249 95.6093 14.6149C94.4149 13.905 92.9993 13.664 91.6373 13.939C90.2752 14.2139 89.064 14.9851 88.2387 16.1028C87.4133 17.2204 87.0328 18.6049 87.171 19.9873C87.3091 21.3697 87.9561 22.6515 88.9864 23.5838C90.0166 24.5161 91.3565 25.0323 92.746 25.0323C93.4926 25.0328 94.2317 24.8836 94.9197 24.5935Z" fill="white"/>
<path d="M27.5034 32.9422C26.9357 32.9422 26.3914 32.7168 25.9899 32.3154C25.5885 31.914 25.3628 31.3696 25.3628 30.8019V27.8241C25.3628 27.6881 25.3756 27.5525 25.4011 27.419C25.4334 27.0439 25.5643 26.6841 25.7807 26.3761L39.1692 7.25848H27.7826C27.2149 7.25848 26.6706 7.033 26.2691 6.63161C25.8677 6.23023 25.642 5.68581 25.642 5.11816V2.14032C25.642 1.57267 25.8677 1.02825 26.2691 0.626865C26.6706 0.225477 27.2149 0 27.7826 0H47.6066C48.1743 0 48.7188 0.225477 49.1202 0.626865C49.5217 1.02825 49.7472 1.57267 49.7472 2.14032V4.84507C49.79 5.21856 49.7334 5.59667 49.5831 5.94123C49.5013 6.13704 49.3908 6.31962 49.2553 6.48294L35.8097 25.6838H47.3277C47.8955 25.6838 48.44 25.9092 48.8414 26.3106C49.2428 26.712 49.4684 27.2564 49.4684 27.8241V30.8019C49.4684 31.3696 49.2428 31.914 48.8414 32.3154C48.44 32.7168 47.8955 32.9422 47.3277 32.9422H27.5034Z" fill="white"/>
<path d="M113.78 5.39719C114.348 5.39719 114.892 5.62268 115.294 6.02407C115.695 6.42546 115.921 6.96986 115.921 7.53751V8.13875C116.513 7.7142 117.144 7.34447 117.803 7.03416C118.547 6.68513 119.326 6.4171 120.127 6.2347C121.77 5.86295 123.474 5.86295 125.117 6.2347C125.918 6.41737 126.697 6.68568 127.44 7.035C128.182 7.3842 128.887 7.80826 129.543 8.30058C130.206 8.7985 130.819 9.35946 131.374 9.97561C131.94 10.6044 132.446 11.2844 132.886 12.007C133.336 12.7478 133.718 13.5283 134.027 14.3385C134.345 15.1738 134.587 16.0362 134.749 16.9152C135.084 18.7441 135.084 20.6188 134.749 22.4477C134.587 23.3266 134.345 24.189 134.027 25.0242C133.719 25.8345 133.336 26.6149 132.886 27.3558C132.446 28.0784 131.94 28.7586 131.374 29.3874C130.819 30.0038 130.206 30.5651 129.542 31.0633C128.886 31.5556 128.182 31.9796 127.44 32.3288C126.696 32.678 125.917 32.946 125.116 33.1283C123.474 33.5 121.769 33.5 120.127 33.1283C119.326 32.9457 118.547 32.6774 117.804 32.328C117.144 32.018 116.513 31.6485 115.921 31.2242V42.8993C115.921 43.467 115.695 44.0114 115.294 44.4128C114.892 44.8142 114.348 45.0396 113.78 45.0396H110.243C109.675 45.0396 109.131 44.8142 108.73 44.4128C108.328 44.0114 108.103 43.467 108.103 42.8993V7.53751C108.103 6.96986 108.328 6.42546 108.73 6.02407C109.131 5.62268 109.675 5.39719 110.243 5.39719H113.78ZM123.678 24.5935C124.959 24.0545 125.994 23.059 126.582 21.8001C127.169 20.5412 127.268 19.1088 126.859 17.7811C126.45 16.4533 125.562 15.3249 124.368 14.6149C123.174 13.905 121.758 13.664 120.396 13.939C119.034 14.2139 117.823 14.9851 116.997 16.1028C116.172 17.2204 115.792 18.6049 115.93 19.9873C116.068 21.3697 116.715 22.6515 117.745 23.5838C118.775 24.5161 120.115 25.0323 121.505 25.0323C122.251 25.0328 122.99 24.8836 123.678 24.5935Z" fill="white"/>
<defs>
<linearGradient id="paint0_linear" x1="0" y1="11.8743" x2="32.455" y2="11.8743" gradientUnits="userSpaceOnUse">
<stop stop-color="white" stop-opacity="0"/>
<stop offset="0.133" stop-color="white" stop-opacity="0"/>
<stop offset="0.512" stop-color="white" stop-opacity="0.694"/>
<stop offset="1" stop-color="white"/>
</linearGradient>
<linearGradient id="paint1_linear" x1="6.91895" y1="18.0159" x2="28.5096" y2="18.0159" gradientUnits="userSpaceOnUse">
<stop stop-color="white" stop-opacity="0"/>
<stop offset="0.133" stop-color="white" stop-opacity="0"/>
<stop offset="0.512" stop-color="white" stop-opacity="0.694"/>
<stop offset="1" stop-color="white"/>
</linearGradient>
<linearGradient id="paint2_linear" x1="13.7661" y1="23.971" x2="24.562" y2="23.971" gradientUnits="userSpaceOnUse">
<stop stop-color="white" stop-opacity="0"/>
<stop offset="0.133" stop-color="white" stop-opacity="0"/>
<stop offset="0.512" stop-color="white" stop-opacity="0.694"/>
<stop offset="1" stop-color="white"/>
</linearGradient>
</defs>
</svg>
